<svg xmlns="http://www.w3.org/2000/svg" width="440" height="261.71" viewBox="0 0 440 261.71">
    <g transform="translate(203.472 -126.67)">
        <path d="M42.264 218.285H62.4l32.078 75.89H72.082L66.6 280.724H37.53l-5.384 13.451H10.187zm18.731 45.932l-8.472-21.6-8.573 21.6z" fill="#595044"/>
        <path d="M101.229 218.269H135.3c11.6 0 19.631 3.033 24.729 8.244 4.449 4.333 6.725 10.189 6.725 17.675v.217c0 11.606-6.185 19.306-15.616 23.315l18.111 26.455h-24.296l-15.291-22.984h-7.4v22.984h-21.033zm33.1 36.435c7.157 0 11.278-3.468 11.278-9v-.216c0-5.966-4.337-9-11.386-9h-11.956V254.7z" fill="#595044"/>
        <path d="M177.367 218.269h58.624v17.9h-37.8v11.492h34v16.59h-34v12.037h38.335v17.89h-59.159z" fill="#595044"/>
        <path d="M-145.893 215.382a40.843 40.843 0 0 0-40.844 40.837 40.844 40.844 0 0 0 40.844 40.851 40.844 40.844 0 0 0 40.844-40.851 40.843 40.843 0 0 0-40.844-40.837zm0 61.58a20.735 20.735 0 0 1-20.735-20.74 20.736 20.736 0 0 1 20.735-20.737 20.741 20.741 0 0 1 20.743 20.737 20.74 20.74 0 0 1-20.743 20.74z" fill="#ffa600" />
        <g>
            <path d="M-25.323 276.962a20.74 20.74 0 0 1-20.744-20.74 20.741 20.741 0 0 1 20.744-20.737 20.707 20.707 0 0 1 16.765 8.561l16.249-11.8a40.763 40.763 0 0 0-33.014-16.864 40.841 40.841 0 0 0-40.844 40.837 40.842 40.842 0 0 0 40.844 40.851 40.746 40.746 0 0 0 33.009-16.864L-8.558 268.4a20.7 20.7 0 0 1-16.765 8.562z" fill="#595044" />
        </g>
    </g>
    <path d="M-86 365.582a108.058 108.058 0 0 1-91.378-50.469h-26.1A131 131 0 0 0-86 388.38a131.006 131.006 0 0 0 117.473-73.267H5.377A108.056 108.056 0 0 1-86 365.582z" fill="#ffa600" transform="translate(203.472 -126.67)"/>
    <path d="M-86 126.67a130.978 130.978 0 0 0-116.16 70.66h26.468A108.038 108.038 0 0 1-86 149.469 108.015 108.015 0 0 1 3.684 197.33h26.475A130.986 130.986 0 0 0-86 126.67z" fill="#ffa600" transform="translate(203.472 -126.67)"/>
</svg>
