<svg xmlns="http://www.w3.org/2000/svg" id="icon_default_320" width="320" height="256" viewBox="0 0 320 256">
    <defs>
        <style>
            .cls-1{fill:#bbb}
        </style>
    </defs>
    <g id="그룹_209" transform="translate(447.809 -887.071)">
        <g id="icon_visual_e-shopping_01">
            <g id="icon">
                <g id="Stroke-9">
                    <path id="사각형_674" d="M0 0H165.722V12.008H0z" class="cls-1" transform="translate(-293.531 1130.78)"/>
                </g>
                <g id="Stroke-10">
                    <path id="패스_564" d="M-411.462 1143.071a37.642 37.642 0 0 1-25.238-9.371c-7.06-6.245-11.108-14.662-11.108-23.1V887.071h276.388c22.164 0 40.889 18.737 40.889 40.915v156.431h-12V927.986a29.285 29.285 0 0 0-28.889-28.907h-264.389V1110.6c0 4.92 2.637 10.19 7.055 14.1a26.4 26.4 0 0 0 21.1 6.126l.736-.045h113.389v12.008h-113.035a42.983 42.983 0 0 1-4.898.282z" class="cls-1"/>
                </g>
            </g>
        </g>
        <g id="그룹_207">
            <path id="패스_565" d="M-439.614 1078.811a5.987 5.987 0 0 1-4.6-2.144 6.006 6.006 0 0 1 .74-8.459l68.771-57.739a6 6 0 0 1 7.381-.259l45.013 32.7 92.331-84.7a6 6 0 0 1 8.445.334l89.392 96.067a6.008 6.008 0 0 1-.3 8.486 6 6 0 0 1-8.48-.3l-85.334-91.707-91.555 83.985a6 6 0 0 1-7.58.433l-45.187-32.829-65.182 54.725a5.97 5.97 0 0 1-3.855 1.407z" class="cls-1"/>
        </g>
        <g id="그룹_208">
            <path id="패스_566" d="M-362.971 982.27a32.214 32.214 0 0 1-32.167-32.188 32.213 32.213 0 0 1 32.167-32.182 32.213 32.213 0 0 1 32.171 32.182 32.214 32.214 0 0 1-32.171 32.188zm0-52.368a20.2 20.2 0 0 0-20.167 20.18 20.2 20.2 0 0 0 20.167 20.181 20.2 20.2 0 0 0 20.171-20.181 20.2 20.2 0 0 0-20.171-20.182z" class="cls-1"/>
        </g>
    </g>
</svg>
