<svg xmlns="http://www.w3.org/2000/svg" id="icon_m_history-counseling_l_24" width="64" height="64" viewBox="0 0 64 64">
    <defs>
        <style>
            .cls-2{fill:#333}
        </style>
    </defs>
    <path id="사각형_518" fill="none" d="M0 0H64V64H0z"/>
    <path id="사각형_515" d="M0 0H13.464V4H0z" class="cls-2" transform="translate(33.683 28.571)"/>
    <path id="사각형_516" d="M0 0H13.464V4H0z" class="cls-2" transform="translate(33.683 38.095)"/>
    <path id="패스_385" d="M709.56 2326.482l-5.23-3.68 2.536-3.206 2.683 1.888 4.9-3.476 2.55 3.2z" class="cls-2"
          transform="translate(-687.079 -2291.825)"/>
    <path id="패스_386" d="M709.56 2336.006l-5.23-3.679 2.536-3.206 2.683 1.888 4.9-3.476 2.55 3.2z" class="cls-2"
          transform="translate(-687.079 -2291.825)"/>
    <path id="패스_387"
          d="M742.641 2355.825h-38.71a8.622 8.622 0 0 1-8.852-8.35v-49.619h13.393v4h-9.152v45.619a4.492 4.492 0 0 0 4.611 4.35h38.71zm.438-9.62h-4.241v-40a4.491 4.491 0 0 0-4.612-4.349h-3.366v-4h3.366a8.623 8.623 0 0 1 8.853 8.349z"
          class="cls-2" transform="translate(-687.079 -2291.825)"/>
    <path id="패스_388"
          d="M732.981 2305.348h-27.8v-3.587c0-5.479 4.726-9.936 10.536-9.936h6.732c5.809 0 10.536 4.457 10.536 9.936zm-23.548-4h19.291a6.161 6.161 0 0 0-6.279-5.523h-6.732a6.163 6.163 0 0 0-6.28 5.523z"
          class="cls-2" transform="translate(-687.079 -2291.825)"/>
</svg>
