<svg xmlns="http://www.w3.org/2000/svg" id="icon_visual_shopping_02" width="80" height="76" viewBox="0 0 80 76">
    <defs>
        <style>
            .cls-1{fill:#333}
        </style>
    </defs>
    <path id="패스_505" d="M148.357 1316.953H94.442a10.367 10.367 0 0 1-10.2-8.95l-4.642-37.661a4.748 4.748 0 0 0-4.7-4.164h-3.5v-4.069h3.5a8.779 8.779 0 0 1 8.672 7.727l4.638 37.631a6.32 6.32 0 0 0 6.232 5.417h53.915z" class="cls-1" transform="translate(-71.397 -1262.109)"/>
    <path id="패스_506" d="M143.472 1306.374H87v-4.068h54.228l1.529-2.552c3.21-5.394 4.643-12.028 4.643-21.507a3.627 3.627 0 0 0-3.638-3.608H93.94v-4.068h49.819a7.666 7.666 0 0 1 7.638 7.676c0 6.909-.594 15.839-5.224 23.62z" class="cls-1" transform="translate(-71.397 -1262.109)"/>
    <path id="패스_508" d="M96.357 1338.109a8.382 8.382 0 1 1 8.24-8.381 8.321 8.321 0 0 1-8.24 8.381zm0-12.693a4.313 4.313 0 1 0 4.24 4.312 4.281 4.281 0 0 0-4.24-4.312z" class="cls-1" transform="translate(-71.397 -1262.109)"/>
    <path id="패스_510" d="M136.917 1338.109a8.382 8.382 0 1 1 8.24-8.381 8.321 8.321 0 0 1-8.24 8.381zm0-12.693a4.313 4.313 0 1 0 4.24 4.312 4.281 4.281 0 0 0-4.24-4.312z" class="cls-1" transform="translate(-71.397 -1262.109)"/>
</svg>
