<svg xmlns="http://www.w3.org/2000/svg" id="icon_m_chat-counseling_l_24" width="56" height="52" viewBox="0 0 56 52">
    <g id="Fill-3" transform="translate(-806.334 -2353.995)">
        <path id="패스_550" d="M823.392 2376.1a3 3 0 1 1-3-3 3 3 0 0 1 3 3" class="cls-1"/>
    </g>
    <g id="Fill-5" transform="translate(-806.334 -2353.995)">
        <path id="패스_551" d="M834.069 2379.1a3 3 0 1 1 3-3 3 3 0 0 1-3 3z" class="cls-1"/>
    </g>
    <g id="Fill-7" transform="translate(-806.334 -2353.995)">
        <path id="패스_552" d="M850.747 2376.1a3 3 0 1 1-3-3 3 3 0 0 1 3 3" class="cls-1"/>
    </g>
    <g id="Rectangle-33" transform="translate(-806.334 -2353.995)">
        <path id="패스_553" d="M828.9 2406a2.964 2.964 0 0 1-2.142-.923 4.564 4.564 0 0 1-1.272-3.187v-4h-11.669a7.635 7.635 0 0 1-7.483-7.761V2354h48.516a7.634 7.634 0 0 1 7.484 7.761v26.949h-4.026v-26.949a3.527 3.527 0 0 0-3.458-3.586h-44.49v31.953a3.528 3.528 0 0 0 3.457 3.586h15.691v7.169l7.608-7.169h24.573v4.175h-23.017l-7.74 7.293a2.963 2.963 0 0 1-2.032.818z" class="cls-1"/>
    </g>
</svg>
