<svg xmlns="http://www.w3.org/2000/svg" width="160" height="160" viewBox="0 0 160 160">
    <defs>
        <style>
            .cls-1{fill:#333}
        </style>
    </defs>
    <path d="M304 160a80.014 80.014 0 0 0 76.833-102.3 6.667 6.667 0 0 0-12.8 3.743 66.579 66.579 0 1 1-26.863-36.816 6.666 6.666 0 0 0 7.454-11.054A80.01 80.01 0 1 0 304 160z" class="cls-1" transform="translate(-224)"/>
    <path d="M372.62 15.286L304 83.9l-21.953-21.95a6.666 6.666 0 0 0-9.427 9.427l26.666 26.667a6.666 6.666 0 0 0 9.428 0l73.333-73.333a6.666 6.666 0 1 0-9.427-9.428z" class="cls-1" transform="translate(-224)"/>
</svg>
