<svg xmlns="http://www.w3.org/2000/svg" id="icon_m_care" width="56" height="56" viewBox="0 0 56 56">
    <defs>
        <style>
            .cls-1{fill:#fff}
        </style>
    </defs>
    <g id="icon_m_guide_l_24" transform="translate(-0.143 -0.143)">
        <path id="Path_196" d="M28.143 56.143a27.992 27.992 0 1 1 23.368-12.569l-.252.327-2.918-2.329.1-.127a24.262 24.262 0 1 0-6.053 6.346l2.194 3.02a27.79 27.79 0 0 1-16.439 5.332z" class="cls-1"/>
        <path id="Path_197" d="M30.285 18.536a7.007 7.007 0 0 0-3.17.677 6.269 6.269 0 0 0-2.259 1.9 8.357 8.357 0 0 0-1.356 2.904 14.373 14.373 0 0 0-.446 3.7 18.01 18.01 0 0 0 .43 4.094 8.778 8.778 0 0 0 1.37 3.169 6.473 6.473 0 0 0 2.426 2.063 8.036 8.036 0 0 0 3.629.743 12.634 12.634 0 0 0 2.939-.347c.967-.231 2.026-.511 3.17-.842l.792 3.236a25.916 25.916 0 0 1-3.41 1.134 14.964 14.964 0 0 1-9.327-.594 10.815 10.815 0 0 1-3.96-2.921 11.771 11.771 0 0 1-2.278-4.374 19.62 19.62 0 0 1-.725-5.431 14.47 14.47 0 0 1 .841-4.968 12.172 12.172 0 0 1 2.421-4.079 11.362 11.362 0 0 1 3.83-2.756 12.226 12.226 0 0 1 5.051-1.006 15.226 15.226 0 0 1 3.895.462q1.749.462 2.936.891l-.66 3.3q-1.387-.363-2.805-.661a16.523 16.523 0 0 0-3.334-.294z" class="cls-1"/>
    </g>
</svg>
