<svg xmlns="http://www.w3.org/2000/svg" id="icon_m_attendance" width="48" height="64" viewBox="0 0 48 64">
    <defs>
        <style>
            .cls-1{fill:#fff}
        </style>
    </defs>
    <path id="Path_187" d="M226.38 466.769a10.2 10.2 0 0 1-10.12-9.833v-9.958h37.847v4h-33.848v5.889a6.173 6.173 0 0 0 6.394 5.9h33.606v-50.09a6.181 6.181 0 0 0-6.394-5.9h-33.606v35.073h-4v-39.075H253.8a10.191 10.191 0 0 1 10.459 9.827v54.16H226.72c-.114.005-.227.007-.34.007z" class="cls-1" transform="translate(-216.259 -402.769)"/>
    <path id="Path_188" d="M238.831 435.432l-9.889-8.652 2.634-3.01 7.255 6.348 10.111-8.848 2.634 3.01z" class="cls-1" transform="translate(-216.259 -402.773)"/>
    <path id="Path_189" d="M240.257 459.966a3 3 0 1 1 3-3 3 3 0 0 1-3 3zm0-5a2 2 0 1 0 2 2 2 2 0 0 0-2-2z" class="cls-1" transform="translate(-216.259 -402.78)"/>
</svg>
