<svg xmlns="http://www.w3.org/2000/svg" id="icon_m_fingerprint02" width="64" height="64" viewBox="0 0 64 60">
    <defs>
        <style>
            .cls-1{fill:#333}
        </style>
    </defs>
    <g id="icon_f_fingerprint-certification_l_24" transform="translate(0 -76.29)">
        <path id="Path_222" d="M61.951 125.258l-3.9-.914.456-1.952c.914-3.914 3.513-17.433-1.415-27.037l-.915-1.783 3.558-1.834.914 1.783c5.554 10.821 2.746 25.533 1.754 29.784z" class="cls-1"/>
        <path id="Path_223" d="M50.584 87.466L49.04 86.19c-8.364-6.922-22.678-7.821-32.584-2.047l-1.73 1.008-2.011-3.467 1.729-1.008c11.445-6.67 27.412-5.63 37.144 2.421l1.542 1.277z" class="cls-1"/>
        <path id="Path_224" d="M4 109.17H0v-2a33.633 33.633 0 0 1 6.733-20.141l1.193-1.61 3.211 2.392-1.192 1.61A29.634 29.634 0 0 0 4 107.165z" class="cls-1"/>
        <path id="Path_225" d="M22.3 136.29l-2.509-3.124 1.559-1.258c6-4.844 9.075-11.759 9.666-21.76l.119-2 3.993.237-.118 2c-.662 11.211-4.206 19.042-11.152 24.648z" class="cls-1"/>
        <path id="Path_226" d="M13.583 130.089l-2.026-3.457 1.724-1.016c5.24-3.088 8-11.568 8.353-18.14.333-6.267 4.865-11.367 10.1-11.367 6.233 0 10.972 3.491 12.367 9.111l.483 1.946-3.883.968-.482-1.946c-.944-3.8-4.116-6.069-8.485-6.069-3.091 0-5.888 3.467-6.106 7.57-.388 7.288-3.323 17.261-10.321 21.384z" class="cls-1"/>
        <path id="Path_227" d="M35.428 135.392l-2.955-2.7 1.348-1.481a27.6 27.6 0 0 0 7.043-18.158l-.046-2.005 4-.092.045 2a31.823 31.823 0 0 1-8.086 20.954z" class="cls-1"/>
        <path id="Path_228" d="M14.092 102.891l-3.846-1.1.55-1.928a19.575 19.575 0 0 1 10.073-12.125 23.763 23.763 0 0 1 18.9-.924l1.88.685-1.369 3.769-1.88-.684a19.764 19.764 0 0 0-15.712.726 15.611 15.611 0 0 0-8.046 9.653z" class="cls-1"/>
        <path id="Path_229" d="M7.211 120.63l-3.248-2.342 1.167-1.627A33.289 33.289 0 0 0 9.47 108l.642-1.9 3.79 1.286-.642 1.9A36.9 36.9 0 0 1 8.379 119z" class="cls-1"/>
        <path id="Path_230" d="M45.471 134.207l-2.841-2.824 1.409-1.423c9.761-9.867 7.936-27.867 1.941-35.187l-1.269-1.55 3.089-2.545 1.268 1.55c6.839 8.351 9.452 28.785-2.192 40.555z" class="cls-1"/>
    </g>
</svg>
