<svg xmlns="http://www.w3.org/2000/svg" id="icon_m_shower" width="64" height="64" viewBox="0 0 64 64">
    <defs>
        <style>
            .cls-1{fill:#fff}
        </style>
    </defs>
    <g id="Group_37" transform="translate(-277.431 -431.041)">
        <path id="Path_358" d="M327.817 475.041v-4a9.658 9.658 0 0 0 1.177-19.238l-1.641-.2-.111-1.65a7.254 7.254 0 0 0-8.76-6.651l-1.472.313-.709-1.328a13.623 13.623 0 0 0-25.659 6.153l-.034 1.491-1.438.393a10.55 10.55 0 0 0 2.761 20.719h29.435v4h-29.435a14.551 14.551 0 0 1-5.2-28.123 17.617 17.617 0 0 1 32.377-7.744c.3-.024.591-.035.885-.035a11.311 11.311 0 0 1 11.021 8.971 13.661 13.661 0 0 1-3.2 26.931z" class="cls-1"/>
    </g>
    <g id="Group_38" transform="translate(-277.431 -431.041)">
        <path id="Rectangle_445" d="M0 0H4.013V11.667H0z" class="cls-1" transform="translate(293.431 483.374)"/>
    </g>
    <g id="Group_39" transform="translate(-277.431 -431.041)">
        <path id="Rectangle_446" d="M0 0H4.013V11.667H0z" class="cls-1" transform="translate(307.374 483.041)"/>
    </g>
    <g id="Group_40" transform="translate(-277.431 -431.041)">
        <path id="Rectangle_447" d="M0 0H4.013V11.667H0z" class="cls-1" transform="translate(321.418 483.041)"/>
    </g>
</svg>
