<svg xmlns="http://www.w3.org/2000/svg" id="icon_gene" width="64" height="64" viewBox="0 0 64 64">
    <defs>
        <style>
            .cls-1{fill:#333}
        </style>
    </defs>
    <path id="사각형_644" d="M0 0H17.725V3.01H0z" class="cls-1" transform="translate(44.36 48.461) rotate(-45)"/>
    <path id="패스_529" d="M150.908 1844.006a12.823 12.823 0 0 1-9.268-3.54c-3.9-3.872-5.747-11.752.795-22.257 4.855-7.8 4.805-11.877 3.909-13.928a5.028 5.028 0 0 0-3.445-2.753l.694-3.952a9.118 9.118 0 0 1 6.392 5.017c1.92 4.272.526 10.24-4.144 17.738-4.429 7.111-4.956 13.735-1.375 17.285 3.638 3.608 10.45 3.106 17.358-1.28 4.891-3.1 9.408-4.637 13.395-4.618a13.954 13.954 0 0 1 2.825.31 12.661 12.661 0 0 1 8.544 6.562l-3.65 1.667a8.6 8.6 0 0 0-5.747-4.308 9.988 9.988 0 0 0-2.012-.218q-4.866-.024-11.205 3.993a24.933 24.933 0 0 1-13.066 4.282z" class="cls-1" transform="translate(-122.588 -1797.576)"/>
    <path id="패스_530" d="M163.6 1861.576a12.674 12.674 0 0 1-6.323-7.612c-1.441-4.857-.072-10.627 4.069-17.152 4.384-6.907 4.887-13.721 1.281-17.358-3.551-3.581-10.175-3.053-17.287 1.374-7.5 4.671-13.465 6.065-17.737 4.146a9.123 9.123 0 0 1-5.017-6.392l3.953-.7a5.021 5.021 0 0 0 2.753 3.445c2.05.9 6.13.946 13.927-3.909 10.5-6.543 18.385-4.7 22.257-.795 4.976 5.019 4.684 13.785-.742 22.334-3.491 5.5-4.706 10.165-3.61 13.86a8.708 8.708 0 0 0 4.143 5.1z" class="cls-1" transform="translate(-122.588 -1797.576)"/>
    <path id="사각형_645" d="M0 0H22.293V3.01H0z" class="cls-1" transform="translate(17.469 33.233) rotate(-45)"/>
    <path id="사각형_646" d="M0 0H29.649V3.01H0z" class="cls-1" transform="translate(19.593 40.558) rotate(-45)"/>
    <path id="사각형_647" d="M0 0H29.649V3.01H0z" class="cls-1" transform="translate(3.066 24.03) rotate(-45)"/>
    <path id="사각형_648" d="M0 0H22.293V3.01H0z" class="cls-1" transform="translate(26.59 42.353) rotate(-45)"/>
</svg>
