<svg xmlns="http://www.w3.org/2000/svg" width="300" height="264" viewBox="0 0 300 264">
    <defs>
        <style>
            .cls-1{fill:#333}
        </style>
    </defs>
    <g id="_05" transform="translate(-1448.38 -995.854)">
        <path id="Rectangle_504" d="M0 0H19.048V36.733H0z" class="cls-1" transform="translate(1522.189 1223.12)"/>
        <path id="Rectangle_505" d="M0 0H19.108V36.733H0z" class="cls-1" transform="translate(1588.585 1222.072)"/>
        <path id="Rectangle_506" d="M0 0H19.108V36.733H0z" class="cls-1" transform="translate(1655.462 1222.072)"/>
        <path id="Path_408" fill="#fcaf17" d="M1685.937 1191.846a55.033 55.033 0 0 0 6.761-109.68 44.122 44.122 0 0 0-53.2-40.02 74.516 74.516 0 0 0-140.11 33.3 59.215 59.215 0 0 0 15.66 116.4h140.169"/>
        <path id="Path_409" d="M1685.938 1198.931v-14.169a47.952 47.952 0 0 0 5.891-95.565l-5.862-.713-.4-5.843a37.025 37.025 0 0 0-36.884-34.379 37.4 37.4 0 0 0-7.706.813l-5.256 1.107-2.531-4.7a67.341 67.341 0 0 0-59.392-35.459c-36.28 0-66.459 29.418-67.275 65.579l-.119 5.281-5.137 1.394a52.137 52.137 0 0 0 13.776 102.486h140.168v14.169h-140.164c-36.76 0-66.667-29.768-66.667-66.358a66.485 66.485 0 0 1 44.14-62.4 81.445 81.445 0 0 1 81.282-74.319 81.624 81.624 0 0 1 69.435 38.533 51.268 51.268 0 0 1 55.891 41.677 62.106 62.106 0 0 1-13.19 122.867z" class="cls-1"/>
    </g>
</svg>
