<svg xmlns="http://www.w3.org/2000/svg" id="icon_m_star" width="120" height="120" viewBox="0 0 120 120">
    <defs>
        <style>
            .cls-1{fill:#fff}
        </style>
    </defs>
    <g id="Oval" transform="translate(-210.261 -787.621)">
        <path id="Path_386" d="M270.261 907.621a59.983 59.983 0 1 1 50.074-26.934l-5-3.311a54.005 54.005 0 1 0-13.369 13.965l3.526 4.855a59.567 59.567 0 0 1-35.231 11.425z" class="cls-1"/>
    </g>
    <g id="icon_m_star_l_24" transform="translate(-210.261 -787.621)">
        <g id="Group_154">
            <path id="Path_387" d="M287.193 875.621l-16.932-9.261-15.49 8.473a1.664 1.664 0 0 1-1.746-.094 1.622 1.622 0 0 1-.676-1.6l2.975-18.059-12.6-12.775a1.614 1.614 0 0 1-.382-1.655 1.642 1.642 0 0 1 1.313-1.094L261 836.94l7.769-16.381a1.649 1.649 0 0 1 1.491-.938 1.648 1.648 0 0 1 1.491.938l7.77 16.381 17.341 2.621a1.643 1.643 0 0 1 1.313 1.094 1.616 1.616 0 0 1-.383 1.655l-12.6 12.775 1.771 10.75-3.251.525-1.9-11.561a1.616 1.616 0 0 1 .446-1.4L293.2 842.3l-15.04-2.273a1.648 1.648 0 0 1-1.243-.919l-6.652-14.026-6.651 14.026a1.65 1.65 0 0 1-1.243.919l-15.045 2.273 10.937 11.1a1.617 1.617 0 0 1 .446 1.4l-2.563 15.558 13.318-7.285a1.659 1.659 0 0 1 1.594 0l17.728 9.7z" class="cls-1"/>
            <path id="Path_388" d="M287.582 876.974l-17.321-9.474-15.01 8.21a2.643 2.643 0 0 1-3.889-2.73l2.893-17.555-12.237-12.412a2.6 2.6 0 0 1-.618-2.679 2.632 2.632 0 0 1 2.109-1.762l16.816-2.541 7.542-15.9a2.654 2.654 0 0 1 4.789 0l7.541 15.9 16.815 2.54a2.636 2.636 0 0 1 2.111 1.763 2.606 2.606 0 0 1-.618 2.68l-12.239 12.411 1.852 11.237-5.226.843-2.067-12.543a2.627 2.627 0 0 1 .721-2.267l9.56-9.7-13.1-1.979a2.643 2.643 0 0 1-2-1.479l-5.749-12.121-5.748 12.121a2.645 2.645 0 0 1-1.995 1.479L249.416 843l9.559 9.7a2.628 2.628 0 0 1 .721 2.267l-2.23 13.533 11.518-6.3a2.643 2.643 0 0 1 2.555 0l18.612 10.18zm-17.321-11.753l16.542 9.048.618-1.107-16.843-9.213a.659.659 0 0 0-.633 0l-15.12 8.271 2.9-17.583a.617.617 0 0 0-.171-.537l-12.316-12.491 16.982-2.566a.645.645 0 0 0 .489-.358l7.555-15.932 7.555 15.932a.652.652 0 0 0 .49.359l16.98 2.565L282.97 854.1a.616.616 0 0 0-.171.536l1.743 10.578 1.277-.206-1.692-10.263 12.954-13.137a.612.612 0 0 0 .148-.631.644.644 0 0 0-.517-.428l-17.866-2.7-8-16.863a.685.685 0 0 0-1.175 0l-8 16.864-17.867 2.7a.639.639 0 0 0-.515.426.613.613 0 0 0 .147.631l12.953 13.138-3.058 18.561a.617.617 0 0 0 .261.613.658.658 0 0 0 .7.036z" class="cls-1"/>
        </g>
    </g>
</svg>
