<svg xmlns="http://www.w3.org/2000/svg" id="icon_visual_confirm_02" width="200" height="320" viewBox="0 0 200 320">
    <defs>
        <style>
            .cls-1{fill:#fcaf17}.cls-3{fill:#333}
        </style>
    </defs>
    <g id="icon" transform="translate(-1011.968 -1893.408)">
        <path id="패스_531" d="M1201.16 2185.38l-36.065 13.112-30.715-84.317 36.052-13.124z" class="cls-1"/>
        <path id="패스_532" d="M1142.942 2083.788a93.04 93.04 0 1 0-119.346-55.6 93.005 93.005 0 0 0 119.346 55.6"
              class="cls-1"/>
        <path id="패스_533" fill="#fefefe"
              d="M1176.721 1972.506a69.83 69.83 0 1 0-41.745 89.426 69.856 69.856 0 0 0 41.745-89.426"/>
        <path id="패스_534" d="M1101.128 2024.056l-32.993-31.473 8.3-8.688 24.69 23.553 44.623-42.567 8.3 8.688z"
              class="cls-3"/>
        <path id="패스_535"
              d="M1162.929 2213.408l-36.281-98.515 49.024-17.635 36.3 98.515zm-20.817-91.311l27.979 75.97 26.411-9.5-27.989-75.968z"
              class="cls-3"/>
        <path id="패스_536"
              d="M1148.133 2118.536l-9-25.807a96.041 96.041 0 0 1-69.024-4.9 99.94 99.94 0 0 1-52.186-57.906c-18.634-52.656 7.906-111.114 59.161-130.311a96.138 96.138 0 0 1 74.857 2.928 99.952 99.952 0 0 1 52.191 57.9c8.036 22.67 8.133 47.087.272 68.747a105.88 105.88 0 0 1-21.033 35.5l-9.063-7.893a94.545 94.545 0 0 0 18.794-31.7c6.913-19.047 6.805-40.585-.3-60.643a88.027 88.027 0 0 0-45.937-51.022 84.184 84.184 0 0 0-65.556-2.567c-45.163 16.915-68.511 68.531-52.045 115.06a88.014 88.014 0 0 0 45.931 51.022 84.167 84.167 0 0 0 65.548 2.564l5.763-2.158 12.982 37.24z"
              class="cls-3"/>
    </g>
</svg>
