<svg xmlns="http://www.w3.org/2000/svg" width="248" height="300" viewBox="0 0 248 300">
    <defs>
        <style>
            .cls-1{fill:#333}
        </style>
    </defs>
    <g id="_02" transform="translate(-385.5 -986.934)">
        <path id="Path_396" d="M486.537 1286.934a34.106 34.106 0 0 1-34.235-33.9h15.03a19.208 19.208 0 0 0 38.41 0v-110.252h15.031v110.256a34.106 34.106 0 0 1-34.236 33.896z" class="cls-1"/>
        <path id="Rectangle_501" d="M0 0H15.03V40.119H0z" class="cls-1" transform="translate(505.742 986.934)"/>
        <path id="Path_397" fill="#fcaf17" d="M404.938 1114.189c12.28-50.223 56.09-87.374 108.253-87.374 61.681 0 111.684 51.949 111.684 116.031H395.628"/>
        <path id="Path_398" d="M633.5 1156.014h-248v-7.522c0-71.264 55.928-129.242 124.674-129.242 57.138 0 106.838 40.049 120.86 97.391l-14.6 3.577c-12.37-50.591-56.067-85.924-106.26-85.924-58.03 0-105.675 47.2-109.409 106.676H633.5z" class="cls-1"/>
    </g>
</svg>
