<svg xmlns="http://www.w3.org/2000/svg" width="64" height="64" viewBox="0 0 52 64">
    <defs>
        <style>
            .cls-2{fill:#333}
        </style>
    </defs>
    <g id="icon_visual_personal" transform="translate(-294.7 -224.747)">
        <path id="Path_299" fill="#ffae00" d="M322.443 251.746h-2.955a8.554 8.554 0 0 1-8.816-8.263v-8.473a8.555 8.555 0 0 1 8.816-8.264h2.955a8.555 8.555 0 0 1 8.816 8.264v8.473a8.554 8.554 0 0 1-8.816 8.263"/>
        <path id="Path_300" d="M346.7 288.747h-52l1.912-21.263a9.055 9.055 0 0 1 4.46-6.961l15.055-8.822 2.127 3.425-15.054 8.821a5.057 5.057 0 0 0-2.488 3.885l-1.52 16.914H346.7z" class="cls-2"/>
        <path id="Path_301" d="M341.218 276.917l-.808-9.143a5.06 5.06 0 0 0-2.428-3.878l-14.665-8.78 2.159-3.4 14.676 8.786a9.061 9.061 0 0 1 4.36 6.943l.807 9.135z" class="cls-2"/>
        <path id="Path_302" d="M322.707 255.413h-3.458a10.706 10.706 0 0 1-10.635-10.284V235.08a10.7 10.7 0 0 1 10.586-10.333h3.482a10.7 10.7 0 0 1 10.636 10.284v10.049a10.7 10.7 0 0 1-10.586 10.333zm-.076-26.667h-3.382a6.627 6.627 0 0 0-6.52 6.382v9.951a6.632 6.632 0 0 0 6.57 6.334h3.354a6.639 6.639 0 0 0 6.548-6.383v-9.95a6.629 6.629 0 0 0-6.57-6.334z" class="cls-2"/>
    </g>
</svg>
