<svg id="icon_m_management_80" xmlns="http://www.w3.org/2000/svg" width="72.001" height="80">
    <defs>
        <style>
            .cls-2{fill:#333}.cls-3{fill:#fefefe}
        </style>
    </defs>
    <path id="Path_612" data-name="Path 612" d="M80.7 1599.994H31c-3.422 0-7.1-3.564-7.1-6.909V1524h49.7c3.422 0 7.1 3.564 7.1 6.909" transform="translate(-21.9 -1521.997)" style="fill:#fcaf17"/>
    <path id="Path_613" data-name="Path 613" class="cls-2" d="M81.27 1601H29.893c-4.452 0-8.987-4.5-8.987-8.909V1521h51.023a9.069 9.069 0 0 1 6.317 2.905 8.718 8.718 0 0 1 2.67 6.027v4.313h-3.962v-4.335a4.789 4.789 0 0 0-1.525-3.191 5.286 5.286 0 0 0-3.5-1.718H24.868v67.091c0 2.248 2.724 4.909 5.025 4.909H81.27z" transform="translate(-20.906 -1521)"/>
    <path id="Rectangle_771" data-name="Rectangle 771" class="cls-2" transform="translate(22.848 54.885)" d="M0 0h7.819v4.006H0z"/>
    <path id="Rectangle_772" data-name="Rectangle 772" class="cls-2" transform="translate(14.508 54.885)" d="M0 0h4.207v4.006H0z"/>
    <path id="Rectangle_773" data-name="Rectangle 773" class="cls-2" transform="translate(22.819 42.219)" d="M0 0h16.48v4.006H0z"/>
    <path id="Rectangle_774" data-name="Rectangle 774" class="cls-2" transform="translate(14.508 42.219)" d="M0 0h4.207v4.006H0z"/>
    <path id="Rectangle_775" data-name="Rectangle 775" class="cls-2" transform="translate(22.819 29.554)" d="M0 0h16.48v4.006H0z"/>
    <path id="Rectangle_776" data-name="Rectangle 776" class="cls-2" transform="translate(14.508 29.554)" d="M0 0h4.207v4.006H0z"/>
    <path id="Rectangle_777" data-name="Rectangle 777" class="cls-2" transform="translate(22.789 16.888)" d="M0 0h23.142v4.006H0z"/>
    <path id="Rectangle_778" data-name="Rectangle 778" class="cls-2" transform="translate(14.508 16.888)" d="M0 0h4.207v4.006H0z"/>
    <path id="Path_614" data-name="Path 614" class="cls-3" d="m94.915 1590.5 13.229 7.835a6.239 6.239 0 0 1 3.053 4.816l1.516 16.95H70.637l1.513-16.95a6.242 6.242 0 0 1 3.055-4.816l13.228-7.835" transform="translate(-42.885 -1544.219)"/>
    <path id="Path_615" data-name="Path 615" class="cls-3" d="M98.193 1578.925h-.471a8.465 8.465 0 0 1-8.179-8.722v-5.814a8.464 8.464 0 0 1 8.179-8.721h.471a8.463 8.463 0 0 1 8.179 8.721v5.814a8.463 8.463 0 0 1-8.179 8.722" transform="translate(-49.025 -1532.57)"/>
    <path id="Path_616" data-name="Path 616" class="cls-2" d="M113.8 1623.376H67.383l1.694-20.331a8.786 8.786 0 0 1 3.979-6.686l13.228-8.395 2.139 3.385-13.229 8.4a4.762 4.762 0 0 0-2.133 3.635l-1.333 15.991h37.731l-1.335-15.991a4.756 4.756 0 0 0-2.131-3.635l-13.228-8.4 2.139-3.385 13.228 8.4a8.779 8.779 0 0 1 3.975 6.688z" transform="translate(-41.802 -1543.376)"/>
    <path id="Path_617" data-name="Path 617" class="cls-2" d="M96.7 1579.931h-.531a10.983 10.983 0 0 1-11.2-10.725v-5.814a10.983 10.983 0 0 1 11.2-10.725h.531a10.983 10.983 0 0 1 11.2 10.725v5.814a10.983 10.983 0 0 1-11.2 10.725zm-.531-23.258a6.981 6.981 0 0 0-7.2 6.719v5.814a6.981 6.981 0 0 0 7.2 6.719h.531a6.981 6.981 0 0 0 7.2-6.719v-5.814a6.981 6.981 0 0 0-7.2-6.719z" transform="translate(-47.523 -1531.573)"/>
</svg>
