<svg xmlns="http://www.w3.org/2000/svg" id="icon_m_reset" width="64" height="64" viewBox="0 0 60 64">
    <defs>
        <style>
            .cls-1{fill:#333}
        </style>
    </defs>
    <g id="icon_m_refresh_l_24" transform="translate(-75.624 -74.069)">
        <path id="Path_231" d="M98.616 90.377H82.628V74.069h3.95v12.3h12.038z" class="cls-1"/>
        <path id="Path_232" d="M105.624 138.069c-16.542 0-30-13.733-30-30.613a31.221 31.221 0 0 1 1.276-8.847l3.785 1.149a27.159 27.159 0 0 0-1.106 7.7c0 14.672 11.685 26.608 26.049 26.608s26.05-11.936 26.05-26.608-11.686-26.609-26.05-26.609a25.811 25.811 0 0 0-19.778 9.284l-3.007-2.6a29.734 29.734 0 0 1 22.781-10.693c16.542 0 30 13.733 30 30.614s-13.458 30.615-30 30.615z" class="cls-1"/>
    </g>
</svg>
