<svg xmlns="http://www.w3.org/2000/svg" width="300" height="272" viewBox="0 0 300 272">
    <defs>
        <style>
            .cls-1{fill:#333}
        </style>
    </defs>
    <g id="_07" transform="translate(-1807.5 -655.5)">
        <ellipse id="Ellipse_47" cx="9.524" cy="9.461" class="cls-1" rx="9.524" ry="9.461" transform="translate(2005.219 906.71)"/>
        <ellipse id="Ellipse_48" cx="9.524" cy="9.461" class="cls-1" rx="9.524" ry="9.461" transform="translate(2038.552 878.327)"/>
        <ellipse id="Ellipse_49" cx="9.524" cy="9.461" class="cls-1" rx="9.524" ry="9.461" transform="translate(1867.123 883.058)"/>
        <ellipse id="Ellipse_50" cx="9.524" cy="9.461" class="cls-1" rx="9.524" ry="9.461" transform="translate(1936.38 907.958)"/>
        <ellipse id="Ellipse_51" cx="9.524" cy="9.461" class="cls-1" rx="9.524" ry="9.461" transform="translate(1961.301 875.465)"/>
        <ellipse id="Ellipse_52" cx="9.524" cy="9.461" class="cls-1" rx="9.524" ry="9.461" transform="translate(1880.349 908.578)"/>
        <path id="Path_413" fill="#fcaf17" d="M2045.058 851.813a55.127 55.127 0 0 0 6.761-109.859 44.113 44.113 0 0 0-53.2-40.086 74.493 74.493 0 0 0-140.11 33.351 59.322 59.322 0 0 0 15.66 116.594h140.169"/>
        <path id="Path_414" d="M2045.058 858.909v-14.192a48.034 48.034 0 0 0 5.891-95.717l-5.862-.714-.4-5.853a36.961 36.961 0 0 0-44.589-33.621l-5.256 1.11-2.53-4.71a67.333 67.333 0 0 0-59.394-35.517c-36.28 0-66.459 29.467-67.275 65.687l-.119 5.289-5.136 1.4a52.231 52.231 0 0 0 13.775 102.654h140.169v14.192h-140.165a66.406 66.406 0 0 1-22.527-128.968 81.657 81.657 0 0 1 150.718-35.849 51.252 51.252 0 0 1 55.89 41.746 62.217 62.217 0 0 1-13.19 123.067z" class="cls-1"/>
    </g>
</svg>
