<svg xmlns="http://www.w3.org/2000/svg" width="64" height="64" viewBox="0 0 64 64">
    <g>
        <g>
            <path fill="#333" d="M1085.049 2335.595a7.339 7.339 0 0 1-5.226-2.165l-12.376-12.376a7.387 7.387 0 0 1 0-10.452l4.616-4.617a7.4 7.4 0 0 1 10.449 0l.862.861 17.158-17.158-.86-.86a7.4 7.4 0 0 1 0-10.449l4.618-4.618a7.387 7.387 0 0 1 10.449 0l7.106 7.107-2.828 2.828-7.106-7.106a3.468 3.468 0 0 0-4.793 0l-4.618 4.618a3.393 3.393 0 0 0 0 4.793l3.688 3.689-22.814 22.813-3.69-3.687a3.394 3.394 0 0 0-4.794 0l-4.616 4.617a3.387 3.387 0 0 0 0 4.794l12.376 12.376a3.467 3.467 0 0 0 4.791 0l4.622-4.619a3.394 3.394 0 0 0 0-4.793l-3.69-3.688 22.817-22.814 3.688 3.688a3.4 3.4 0 0 0 4.794 0l4.615-4.618a3.386 3.386 0 0 0 0-4.792l2.827-2.83a7.386 7.386 0 0 1 0 10.451l-4.615 4.617a7.4 7.4 0 0 1-10.45 0l-.86-.86-17.159 17.156.86.861a7.4 7.4 0 0 1 0 10.449l-4.62 4.619a7.335 7.335 0 0 1-5.221 2.165z" transform="translate(-1065.281 -2271.595)"/>
        </g>
    </g>
</svg>
