<svg xmlns="http://www.w3.org/2000/svg" id="icon_m_confirm" width="80" height="120" viewBox="0 0 80 120">
    <defs>
        <style>
            .cls-1{fill:#fff}
        </style>
    </defs>
    <g id="icon" transform="translate(-915.148 -700.005)">
        <g id="Stroke-17">
            <path id="Path_344" d="M949.941 750.57l-13.447-11.718 4.055-4.459 9.054 7.89 15.587-15.945 4.405 4.126z" class="cls-1"/>
        </g>
        <g id="Stroke-6">
            <path id="Path_345" d="M975.537 820.005l-15.7-37.492 19.6-7.867 15.707 37.491zm-7.745-34.232l11.075 26.445 8.324-3.341-11.078-26.444z" class="cls-1"/>
        </g>
        <g id="Stroke-8">
            <path id="Path_346" d="M968.243 784.221l-3.5-8.781a37.28 37.28 0 0 1-25.721-1.009 38.138 38.138 0 0 1-21.031-21.231c-7.944-19.673 1.333-42.234 20.679-50.29a37.32 37.32 0 0 1 28.662-.077 38.891 38.891 0 0 1 22.2 47.284 39.94 39.94 0 0 1-7.495 13.751l-4.773-3.715a34.419 34.419 0 0 0 6.453-11.829 32.5 32.5 0 0 0-1.014-22.061 32.161 32.161 0 0 0-17.719-17.923 31.158 31.158 0 0 0-23.922.062c-16.331 6.8-24.134 25.914-17.394 42.605a32.158 32.158 0 0 0 17.716 17.922 31.126 31.126 0 0 0 23.92-.062l2.893-1.2 5.733 14.394z" class="cls-1"/>
        </g>
    </g>
</svg>
