<svg xmlns="http://www.w3.org/2000/svg" id="icon_m_great_160_y" width="160" height="160" viewBox="0 0 160 160">
    <defs>
        <clipPath id="clip-path">
            <path id="사각형_423" d="M0 0H99.998V37.999H0z" class="cls-1" transform="translate(0 0)"/>
        </clipPath>
        <clipPath id="clip-path-2">
            <path fill="none" d="M5 36H104V78H5z"/>
        </clipPath>
        <style>
            .cls-1,.cls-4,.cls-7{fill:#333}.cls-1{stroke:transparent;stroke-miterlimit:10}.cls-7{font-size:110px;font-family:NotoSansCJKkr-Regular,Noto Sans CJK KR}
        </style>
    </defs>
    <ellipse id="타원_29" cx="73" cy="72.5" fill="#fcaf17" rx="73" ry="72.5" transform="translate(7 7)"/>
    <path id="패스_472" d="M812.5 1965.1a79.979 79.979 0 1 1 66.765-35.912l-.21.288-.447.559-6.251-4.991.333-.417a72 72 0 1 0-17.922 18.768l4.7 6.472A79.413 79.413 0 0 1 812.5 1965.1z" class="cls-4" transform="translate(-732.5 -1805.099)"/>
    <g id="마스크_그룹_8" clip-path="url(#clip-path)" transform="translate(30 93.001)">
        <path id="패스_333" d="M57.989 95.9a34 34 0 1 1 34-34 34.038 34.038 0 0 1-34 34zm0-59.478A25.478 25.478 0 1 0 83.468 61.9a25.506 25.506 0 0 0-25.479-25.476z" class="cls-1" transform="translate(-8.994 -57.902)"/>
        <path id="사각형_570" d="M0 0H66V8H0z" class="cls-4" transform="translate(17)"/>
    </g>
    <g id="스크롤_그룹_3" transform="translate(26 0.001)" style="isolation:isolate" clip-path="url(#clip-path-2)">
        <text id="_" class="cls-7" transform="translate(57 128)">
            <tspan x="0" y="0">*</tspan>
        </text>
        <text id="_2" class="cls-7" transform="translate(0 128)">
            <tspan x="0" y="0">*</tspan>
        </text>
    </g>
</svg>
