<svg xmlns="http://www.w3.org/2000/svg" id="icon_m_point" width="120" height="120" viewBox="0 0 120 120">
    <defs>
        <style>
            .cls-1{fill:#fff}
        </style>
    </defs>
    <g id="icon_m_guide_l_24" transform="translate(-294.222 -842.018)">
        <g id="Group_153">
            <g id="Group_152">
                <g id="Group_151">
                    <path id="Path_384" d="M335.7 930.492v-53.413a91.09 91.09 0 0 1 9.351-2.526 41.73 41.73 0 0 1 8.694-1.01 22.011 22.011 0 0 1 7.619 1.333 19.021 19.021 0 0 1 6.385 3.863 18.568 18.568 0 0 1 4.37 6.17 20.147 20.147 0 0 1 1.621 8.265 20.974 20.974 0 0 1-1.4 7.795 17.245 17.245 0 0 1-4.006 6.065 18.685 18.685 0 0 1-6.28 3.966 22.357 22.357 0 0 1-8.23 1.445 25.4 25.4 0 0 1-3.83-.288 38.427 38.427 0 0 1-3.824-.8v19.129zm27.649-37.679q0-5.34-2.385-8.265t-7.36-2.922a22.273 22.273 0 0 0-3.466.326 25.03 25.03 0 0 0-3.971.972v20.139a21.544 21.544 0 0 0 3.613.9 24.311 24.311 0 0 0 3.677.253q5.34 0 7.619-3.14a13.774 13.774 0 0 0 2.276-8.263z" class="cls-1"/>
                </g>
            </g>
        </g>
    </g>
    <g id="Oval" transform="translate(-294.222 -842.018)">
        <path id="Path_385" d="M353.222 962.018a59.987 59.987 0 1 1 50.078-26.935l-5-3.311a54 54 0 1 0-13.368 13.965l3.525 4.856a59.569 59.569 0 0 1-35.235 11.425z" class="cls-1" transform="translate(1)"/>
    </g>
</svg>
