<svg xmlns="http://www.w3.org/2000/svg" id="icon_m_setting" width="64" height="64" viewBox="0 0 64 64">
    <defs>
        <style>
            .cls-1{fill:#333}
        </style>
    </defs>
    <g id="icon_m_setting_l_24" transform="translate(-222.15)">
        <path id="Path_207" d="M261.068 64h-.011l-14.86-.077a2.02 2.02 0 0 1-1.988-1.818l-.8-7.7a24.6 24.6 0 0 1-3.974-2.333l-7.117 3.086a2 2 0 0 1-2.533-.853l-7.362-12.93a2.047 2.047 0 0 1 .568-2.663l6.259-4.552a22.3 22.3 0 0 1-.111-2.292 21.913 21.913 0 0 1 .136-2.291l-6.212-4.618a2.046 2.046 0 0 1-.541-2.669l7.5-12.851a1.993 1.993 0 0 1 2.541-.826l7.084 3.161a24.633 24.633 0 0 1 4-2.292l.887-7.688a2.017 2.017 0 0 1 2-1.8h.01l14.86.078A2.019 2.019 0 0 1 263.38 1.9l.806 7.7a24.53 24.53 0 0 1 3.974 2.333l7.118-3.087a2 2 0 0 1 2.533.853l7.361 12.93a2.047 2.047 0 0 1-.568 2.663l-6.26 4.552a21.226 21.226 0 0 1-.024 4.582l7.83 5.822-2.38 3.274-8.786-6.533a2.042 2.042 0 0 1-.8-1.939 20.522 20.522 0 0 0 .251-2.935 20.607 20.607 0 0 0-.22-2.941 2.044 2.044 0 0 1 .817-1.928l5.749-4.181-5.564-9.772-6.544 2.837a1.99 1.99 0 0 1-2.037-.272 20.529 20.529 0 0 0-5.079-2.979 2.033 2.033 0 0 1-1.248-1.672l-.739-7.069-11.264-.059-.814 7.061a2.025 2.025 0 0 1-1.265 1.657 20.64 20.64 0 0 0-5.111 2.927 1.988 1.988 0 0 1-2.04.251l-6.511-2.906-5.665 9.707 5.7 4.24a2.042 2.042 0 0 1 .8 1.939 20.548 20.548 0 0 0-.25 2.937 20.443 20.443 0 0 0 .22 2.941 2.042 2.042 0 0 1-.818 1.928l-5.748 4.181 5.565 9.772 6.543-2.837a1.988 1.988 0 0 1 2.036.273 20.578 20.578 0 0 0 5.079 2.979 2.029 2.029 0 0 1 1.248 1.671l.74 7.069 11.263.058.815-7.061a2.024 2.024 0 0 1 1.264-1.657 20.564 20.564 0 0 0 5.11-2.926 1.992 1.992 0 0 1 1.877-.315l10.776 3.715-1.3 3.846-9.782-3.372a24.682 24.682 0 0 1-4.094 2.358l-.887 7.688A2.017 2.017 0 0 1 261.068 64z" class="cls-1"/>
        <path id="Path_208" d="M253.8 43.495h-.062a11.232 11.232 0 0 1-8.021-3.41 11.522 11.522 0 0 1 8.08-19.581h.059a11.238 11.238 0 0 1 8.022 3.41 11.588 11.588 0 0 1-.084 16.257 11.23 11.23 0 0 1-7.994 3.324zm0-18.927a7.449 7.449 0 0 0-5.224 12.659 7.262 7.262 0 0 0 5.186 2.2 7.169 7.169 0 0 0 5.208-2.149 7.426 7.426 0 0 0 2.179-5.244 7.421 7.421 0 0 0-2.125-5.266 7.26 7.26 0 0 0-5.186-2.2z" class="cls-1"/>
    </g>
</svg>
