<svg xmlns="http://www.w3.org/2000/svg" id="icon_visual_delivery" width="80" height="76" viewBox="0 0 80 76">
    <defs>
        <style>
            .cls-2{fill:#333}.cls-3{fill:#fefefe}
        </style>
    </defs>
    <path id="패스_493" fill="#fcaf17" d="M1139.616 1362.9H1073.7c-4.346 0-9.238-3.2-9.238-7.741v-43.587l9.714-20.54h51.24a8.848 8.848 0 0 1 8.141 5.621l6.056 14.872v34.592" transform="translate(-1061.724 -1288.56)"/>
    <path id="패스_494" d="M1141.724 1364.56h-69.568c-5.947 0-10.432-4.634-10.432-10.777v-44l9.133-21.227h54c4.526 0 8.355 2.9 10.258 7.751l6.5 13.428v37.51h-4v-36.535l-6.182-12.79c-1.264-3.275-3.721-5.232-6.575-5.232h-51.4l-7.732 17.973v43.118a6.327 6.327 0 0 0 6.432 6.645h69.568z" class="cls-2" transform="translate(-1061.724 -1288.56)"/>
    <path id="사각형_614" d="M0 0H73.784V4.132H0z" class="cls-2" transform="translate(4.109 21.778)"/>
    <path id="패스_495" d="M1112.21 1311.316h-18.973l3.231-19.6h12.511z" class="cls-3" transform="translate(-1061.724 -1288.56)"/>
    <path id="패스_496" d="M1114.65 1314.471h-23.85l5.016-25.911h13.82zm-18.973-4.133h14.094l-3.416-17.646h-7.262z" class="cls-2" transform="translate(-1061.724 -1288.56)"/>
    <path id="패스_497" d="M1094.425 1328.6h16.865v-17.423h-16.865z" class="cls-3" transform="translate(-1061.724 -1288.56)"/>
    <path id="패스_498" d="M1114.21 1331.893h-22.972v-21.555h22.972zm-18.972-4.132h14.972v-13.29h-14.972z" class="cls-2" transform="translate(-1061.724 -1288.56)"/>
</svg>
