<svg xmlns="http://www.w3.org/2000/svg" id="icon_m_watch" width="72" height="72" viewBox="0 0 72 72">
    <defs>
        <style>
            .cls-2{fill:#333}
        </style>
    </defs>
    <path id="Rectangle_377" fill="none" d="M0 0H72V72H0z"/>
    <g id="Group_194" transform="translate(0 -164)">
        <g id="icon_m_pc_l_24">
            <g id="Rectangle-71">
                <path id="Path_262" d="M63.586 227.5h-46.9A12.672 12.672 0 0 1 4 214.875V172.5h46.9a12.672 12.672 0 0 1 12.69 12.625v20.915h-4v-20.915a8.667 8.667 0 0 0-8.69-8.625H8v38.375a8.667 8.667 0 0 0 8.689 8.625h42.9v-8.623h4z" class="cls-2"/>
            </g>
        </g>
        <g id="Group_187">
            <path id="Path_263" d="M56.279 176.5H11.307l6.288-12.5h32.4zm-38.482-4h31.992l-2.263-4.5H20.06z" class="cls-2"/>
        </g>
        <g id="Group_188">
            <path id="Rectangle_374" d="M0 0H4.276V8.5H0z" class="cls-2" transform="translate(63.724 193.625)"/>
        </g>
        <g id="Group_189">
            <path id="Path_264" d="M27.074 210.5c-7.718 0-8.108-14.31-8.108-17.179a7.86 7.86 0 0 1 8.108-8.071 5.4 5.4 0 0 1 4.3 1.795c2.169 2.523 1.542 6.665 1.038 9.995a20.357 20.357 0 0 0-.28 2.353 13.632 13.632 0 0 0 .314 2.16c.437 2.276.982 5.109-.68 7.12a5.757 5.757 0 0 1-4.692 1.827zm-4.108-17.169c.007 5.524 1.437 13.169 4.108 13.169.954 0 1.454-.193 1.605-.375.461-.559.069-2.6-.165-3.816a15.967 15.967 0 0 1-.386-2.916 21.51 21.51 0 0 1 .325-2.953c.32-2.115.857-5.656-.116-6.787-.095-.11-.347-.4-1.263-.4a3.848 3.848 0 0 0-4.108 4.078z" class="cls-2"/>
        </g>
        <g id="Group_190">
            <path id="Rectangle_375" d="M0 0H9.162V4H0z" class="cls-2" transform="translate(20.966 198.911)"/>
        </g>
        <g id="Group_191">
            <path id="Path_265" d="M42.586 217.9a5.758 5.758 0 0 1-4.688-1.827c-1.662-2.011-1.117-4.844-.68-7.12a13.632 13.632 0 0 0 .314-2.16 20.394 20.394 0 0 0-.28-2.354c-.5-3.329-1.131-7.472 1.038-9.994a5.4 5.4 0 0 1 4.3-1.795 7.86 7.86 0 0 1 8.108 8.071c-.004 2.865-.398 17.179-8.112 17.179zm0-21.25c-.916 0-1.168.293-1.263.4-.972 1.131-.436 4.672-.116 6.787a21.493 21.493 0 0 1 .325 2.953 15.956 15.956 0 0 1-.386 2.915c-.234 1.219-.625 3.258-.165 3.817.151.182.651.375 1.6.375 2.671 0 4.1-7.645 4.108-13.169a3.848 3.848 0 0 0-4.103-4.082z" class="cls-2"/>
        </g>
        <g id="Group_192">
            <path id="Rectangle_376" d="M0 0H9.162V4H0z" class="cls-2" transform="translate(39.532 206.307)"/>
        </g>
        <g id="Group_193">
            <path id="Path_266" d="M50.967 236h-32.4l-6.289-12.5h44.978zm-29.931-4H48.5l2.264-4.5H18.772z" class="cls-2"/>
        </g>
    </g>
</svg>
