<svg xmlns="http://www.w3.org/2000/svg" id="icon_m_alram" width="316" height="320" viewBox="0 0 316 320">
    <defs>
        <style>
            .cls-1{fill:#333}
        </style>
    </defs>
    <path id="패스_463" d="M1032.6 1821.427l-9.695-7.2 44.537-59.027 9.694 7.2z" class="cls-1" transform="translate(-993.739 -1501.426)"/>
    <path id="패스_464" d="M1269.227 1821.427l-44.538-59.027 9.695-7.2 44.538 59.027z" class="cls-1" transform="translate(-993.739 -1501.426)"/>
    <path id="패스_465" fill="#fcaf17" d="M1283.406 1658c0 71.975-58.12 130.317-129.795 130.317S1023.8 1729.971 1023.8 1658s58.12-130.316 129.808-130.316 129.798 58.336 129.798 130.316" transform="translate(-994.644 -1503.236)"/>
    <path id="패스_466" d="M1152.7 1797.934c-78.222 0-141.859-63.139-141.859-140.747s63.637-140.749 141.859-140.749 141.859 63.139 141.859 140.749a139.369 139.369 0 0 1-23.469 77.563l-.318.433-.8.992-9.464-7.5.627-.779a127.45 127.45 0 0 0 21.311-70.713c0-70.984-58.2-128.733-129.749-128.733s-129.749 57.749-129.749 128.733 58.205 128.732 129.749 128.732a129.488 129.488 0 0 0 76.17-24.506l7.116 9.721a141.572 141.572 0 0 1-83.283 26.804z" class="cls-1" transform="translate(-993.739 -1501.426)"/>
    <path id="패스_467" d="M1096.587 1720.531l-8.563-8.495 60.172-59.7v-73.155h12.11v78.131z" class="cls-1" transform="translate(-993.739 -1501.426)"/>
    <path id="패스_468" d="M1289 1622.237l-8.523-8.534c22.932-22.545 22.866-59.634-.148-82.679a59.525 59.525 0 0 0-41.728-17.578 58.072 58.072 0 0 0-41.6 16.672l-8.524-8.534a69.949 69.949 0 0 1 50.247-20.152 71.6 71.6 0 0 1 50.206 21.136c27.717 27.75 27.748 72.462.07 99.669z" class="cls-1" transform="translate(-993.739 -1501.426)"/>
    <path id="패스_469" d="M1014.475 1622.237c-27.675-27.207-27.644-71.919.069-99.669a71.6 71.6 0 0 1 50.205-21.136 69.929 69.929 0 0 1 50.251 20.152l-8.523 8.534a58.09 58.09 0 0 0-41.6-16.672 59.525 59.525 0 0 0-41.728 17.578c-23.014 23.045-23.08 60.134-.148 82.679z" class="cls-1" transform="translate(-993.739 -1501.426)"/>
</svg>
