<svg xmlns="http://www.w3.org/2000/svg" id="icon_m_location" width="72" height="72" viewBox="0 0 72 72">
    <defs>
        <style>
            .cls-2{fill:#333}
        </style>
    </defs>
    <path id="Rectangle_366" fill="none" d="M0 0H72V72H0z"/>
    <g id="Group_186" transform="translate(-179 -82)">
        <path id="Path_253" d="M215.925 154a2 2 0 0 1-1.575-.77l-20.454-26.213a27.816 27.816 0 0 1 4.949-39.156A28.248 28.248 0 0 1 216.029 82a27.816 27.816 0 0 1 22.053 44.963l-5.061 6.459-3.148-2.466 5.06-6.46a23.815 23.815 0 0 0-18.9-38.5 24.228 24.228 0 0 0-14.741 5.026 23.815 23.815 0 0 0-4.24 33.53l18.88 24.2 7.267-9.274 3.148 2.467-8.847 11.288a2 2 0 0 1-1.575.767z" class="cls-2"/>
        <path id="Path_254" d="M216.528 117.687a10.8 10.8 0 1 1 10.845-10.8 10.836 10.836 0 0 1-10.845 10.8zm0-17.6a6.8 6.8 0 1 0 6.846 6.8 6.83 6.83 0 0 0-6.846-6.804z" class="cls-2"/>
    </g>
</svg>
