<svg xmlns="http://www.w3.org/2000/svg" id="icon_visual_use" width="248" height="320" viewBox="0 0 248 320">
    <defs>
        <style>
            .cls-2{fill:#333}
        </style>
    </defs>
    <g id="icon" transform="translate(-1407.25 -1541.428)">
        <path id="패스_539" fill="#fcaf17"
              d="M1603.612 1822.928h-162.9c-15.209 0-27.531-18.639-27.531-34.228v-241.272h162.878c15.219 0 27.549 12.638 27.549 28.228"/>
        <path id="패스_540"
              d="M1609.548 1830.629h-171.524c-15.819 0-30.774-15.546-30.774-31.989v-257.212h171.524c15.818 0 30.774 15.545 30.774 31.988v121.275h-11.871v-121.275c0-9.714-9.717-19.988-18.9-19.988h-159.656v245.212c0 9.714 9.716 19.989 18.9 19.989h159.653v-71.963h11.871z"
              class="cls-2"/>
        <path id="사각형_653" d="M0 0H121.873V12H0z" class="cls-2" transform="translate(1447.462 1610.729)"/>
        <path id="사각형_654" d="M0 0H121.873V12H0z" class="cls-2" transform="translate(1447.462 1656.928)"/>
        <path id="사각형_655" d="M0 0H121.873V12H0z" class="cls-2" transform="translate(1447.462 1703.129)"/>
        <path id="사각형_656" d="M0 0H60.937V12H0z" class="cls-2" transform="translate(1447.462 1749.328)"/>
        <path id="패스_541" fill="#fefefe"
              d="M1649.315 1797.673c0 31.892-25.578 57.755-57.129 57.755s-57.128-25.863-57.128-57.755 25.578-57.745 57.128-57.745 57.129 25.853 57.129 57.745"/>
        <path id="패스_542"
              d="M1592.186 1861.428c-34.773 0-63.063-28.6-63.063-63.756s28.29-63.744 63.063-63.744 63.064 28.6 63.064 63.744-28.29 63.756-63.064 63.756zm0-115.5c-28.228 0-51.192 23.212-51.192 51.744s22.964 51.756 51.192 51.756 51.193-23.217 51.193-51.756-22.965-51.744-51.193-51.744z"
              class="cls-2"/>
        <path id="패스_543" d="M1587.628 1816.581l-23.807-21.883 7.986-8.879 15.82 14.543 29.513-27.13 7.986 8.879z"
              class="cls-2"/>
    </g>
</svg>
