<svg xmlns="http://www.w3.org/2000/svg" width="80" height="80">
    <path data-name="Path 618" d="m305.419 470.612 46.443-46.991c2.635-2.427 2.638-6.96 0-9.79l-7.74-7.831-52.249 50.907" style="fill:#fb9c08" transform="translate(-276.291 -403.32)"/>
    <path data-name="Path 619" d="M355.932 483.32h-79.641l9.439-25.455 57.762-54.545 9.566 9.381a8.614 8.614 0 0 1 3.232 6.687 8.353 8.353 0 0 1-3.247 6.409l-49.788 48.824-2.68-2.779L350.6 422.8a4.453 4.453 0 0 0 1.845-3.46 4.713 4.713 0 0 0-1.88-3.688l-.13-.115-7-6.86-54.428 51.4-7.182 19.369h74.1z" style="fill:#070607" transform="translate(-276.291 -403.32)"/>
</svg>
