<svg id="icon_m_checkup_80" xmlns="http://www.w3.org/2000/svg" width="60" height="80">
    <defs>
        <style>
            .cls-2{fill:#333}
        </style>
    </defs>
    <path id="Path_327" data-name="Path 327" d="M367.987 176.184h-48.824a7.152 7.152 0 0 1-7.139-7.163v-68.837h48.824a7.149 7.149 0 0 1 7.139 7.162v68.838" transform="translate(-310.06 -98.184)" style="fill:#fcaf17"/>
    <path id="Path_328" data-name="Path 328" class="cls-2" d="M370.06 178.184h-51.818c-4.13 0-8.182-4.128-8.182-8.334V98.184h51.709a8.738 8.738 0 0 1 8.181 8.365v56.968h-3.927v-57a4.265 4.265 0 0 0-1.318-2.878 4.4 4.4 0 0 0-2.936-1.455h-47.782v67.666c0 1.984 2.307 4.334 4.255 4.334h51.818z" transform="translate(-310.06 -98.184)"/>
    <path id="Path_329" data-name="Path 329" d="M351.4 136.072v16.889h-14.5c-3.273 0-6.218-3.6-6.218-8.444v-16.889h4.146l5.454 10.681 4.909-2.237" transform="translate(-310.06 -98.184)" style="fill:#fff"/>
    <path id="Path_330" data-name="Path 330" class="cls-2" d="M353.369 152.85H336.9c-6.333 0-10.254-4.326-10.254-8.333v-18.889h9.294l5.336 9.06 14.819-18.865 3.066 2.5-18.351 23.356-7.1-12.051h-3.142v14.889c0 1.771 2.254 4.333 6.327 4.333h12.545v-12.778h3.928z" transform="translate(-310.06 -98.184)"/>
</svg>
