<svg xmlns="http://www.w3.org/2000/svg" id="icon_visual_entertaimment_01" width="296" height="320" viewBox="0 0 296 320">
    <defs>
        <style>
            .cls-2{fill:#333}
        </style>
    </defs>
    <path id="Path_364" fill="#fcaf17" d="M569.349 504.827l48.9-33.5H557.8l-18.681-54.188-18.68 54.188h-60.456l48.913 33.5-18.69 54.189 48.912-33.488 48.913 33.488z" transform="translate(-395.239 -354.597)"/>
    <path id="Path_365" d="M545.034 674.6h-11.978V521.4h7.9l1.612 1.1 33.947 24.09-14.353-42.83 37.274-26.119H553.4l-14.31-42.976-14.35 42.977h-46.026l37.28 26.118-20.1 60.009-11.356-3.817 17.248-51.5-48.977-34.314 2.909-8.5h60.4l18.617-55.754h8.732l18.568 55.754h60.395l2.909 8.5-48.97 34.313 18.787 56.09-7.656 4.559-42.467-30.137z" class="cls-2" transform="translate(-395.239 -354.597)"/>
    <path id="Rectangle_466" d="M0 0H11.978V25.036H0z" class="cls-2" transform="translate(137.845)"/>
    <path id="Path_366" d="M425.595 460.373l-23.768-7.731 3.7-11.414 23.768 7.731z" class="cls-2" transform="translate(-395.239 -354.597)"/>
    <path id="Path_367" d="M460.033 612.742l-8.517-8.437 19.992-20.255 8.517 8.438z" class="cls-2" transform="translate(-395.239 -354.597)"/>
    <path id="Path_368" d="M477.551 419.894l-24.99-41.728 10.27-6.174 11.847 19.78 13.144 21.947z" class="cls-2" transform="translate(-395.239 -354.597)"/>
    <path id="Path_369" d="M399.689 552.113l-4.45-11.142.037-.015 19.7-7.9 21.91-8.781 4.449 11.143z" class="cls-2" transform="translate(-395.239 -354.597)"/>
    <path id="Path_370" d="M660.882 460.373l-3.7-11.414 23.769-7.731 3.7 11.414z" class="cls-2" transform="translate(-395.239 -354.597)"/>
    <path id="Path_371" d="M626.444 612.742l-19.991-20.255 8.517-8.437 19.992 20.25z" class="cls-2" transform="translate(-395.239 -354.597)"/>
    <path id="Path_372" d="M608.927 419.894l-10.27-6.174 13.143-21.947 11.847-19.78 10.27 6.174z" class="cls-2" transform="translate(-395.239 -354.597)"/>
    <path id="Path_373" d="M686.789 552.113l-41.65-16.691 4.449-11.143 21.91 8.781 19.739 7.915z" class="cls-2" transform="translate(-395.239 -354.597)"/>
</svg>
