<svg xmlns="http://www.w3.org/2000/svg" id="icon_m_sound" width="56" height="48" viewBox="0 0 56 48">
    <defs>
        <style>
            .cls-1{fill:#000}
        </style>
    </defs>
    <g id="icon_m_notice_l_24" transform="translate(-897.438 -2138.528)">
        <g id="Page-1">
            <path id="패스_417"
                  d="M930.637 2186.528h-4v-40.4l-20.371 13.415-4.828-.026v9.1a.674.674 0 0 0 .653.69l4.184.007 16.812 11.07-2.12 3.574-15.843-10.432-3.04-.006a4.79 4.79 0 0 1-4.646-4.9v-13.336l7.69.041 25.509-16.8z"
                  class="cls-1"/>
        </g>
    </g>
    <g id="그룹_196" transform="translate(-897.438 -2138.528)">
        <path id="패스_418"
              d="M938.26 2173.152l-2.617-3.186c3.038-2.771 4.524-5.588 4.415-8.373-.171-4.388-4.245-7.644-4.287-7.675l2.361-3.4c.231.178 5.67 4.437 5.923 10.9.162 4.134-1.788 8.082-5.795 11.734z"
              class="cls-1"/>
    </g>
    <g id="그룹_197" transform="translate(-897.438 -2138.528)">
        <path id="패스_419"
              d="M943.373 2181.213l-2.617-3.187c5.965-5.438 8.882-11.065 8.671-16.724-.336-8.978-8.463-15.384-8.546-15.447l2.363-3.4c.4.306 9.748 7.627 10.179 18.647.277 7.015-3.107 13.781-10.05 20.111z"
              class="cls-1"/>
    </g>
</svg>
