<svg xmlns="http://www.w3.org/2000/svg" id="icon_info" width="252" height="320" viewBox="0 0 252 320">
    <defs>
        <style>
            .cls-2{fill:#333}
        </style>
    </defs>
    <path id="패스_554" fill="#fcaf17" d="M1503.912 2112.516v-201.208c0-17.675-14.838-32.019-33.145-32.019h-182.1v275.959c0 17.676 14.827 32.01 33.135 32.01h182.11v-29.943" transform="translate(-1256.636 -1868.428)"/>
    <path id="패스_555" d="M1508.636 2188.428H1320.52c-21.582 0-39.141-17.058-39.141-38.025v-281.975h188.107c21.587 0 39.15 17.062 39.15 38.035v201.208h-12.012v-201.208c0-14.338-12.174-26-27.138-26h-176.094V2150.4c0 14.333 12.17 25.994 27.128 25.994h176.1v-23.928h12.012z" class="cls-2" transform="translate(-1256.636 -1868.428)"/>
    <path id="사각형_665" d="M0 0H61.499V12.031H0z" class="cls-2" transform="translate(0 53.894)"/>
    <path id="사각형_666" d="M0 0H61.499V12.031H0z" class="cls-2" transform="translate(0 115.488)"/>
    <path id="사각형_667" d="M0 0H61.499V12.031H0z" class="cls-2" transform="translate(0 177.082)"/>
    <path id="사각형_668" d="M0 0H61.499V12.031H0z" class="cls-2" transform="translate(0 238.677)"/>
    <path id="패스_556" d="M1403.005 1984.931c.181 5.457-3.815 9.823-10.172 9.823a9.512 9.512 0 0 1-9.626-9.823 9.747 9.747 0 0 1 9.989-10.006c5.994 0 9.809 4.366 9.809 10.006zm-17.8 112.788v-88.048h15.985v88.048z" class="cls-2" transform="translate(-1256.636 -1868.428)"/>
</svg>
