<svg xmlns="http://www.w3.org/2000/svg" id="icon_m_shopping01" width="120" height="112" viewBox="0 0 120 112">
    <defs>
        <style>
            .cls-1{fill:#ffbf00}.cls-2{fill:#070607}
        </style>
    </defs>
    <g id="icon" transform="translate(-478.281 -699.15)">
        <g id="Fill-1">
            <path id="Path_318" d="M495.452 714.581h93.172a6.694 6.694 0 0 1 6.73 6.657v1.662c0 11.574-1.376 23.341-7.36 33.287l-3.156 5.2h-82.582" class="cls-1"/>
        </g>
        <g id="Stroke-3">
            <path id="Path_319" d="M593.793 779.943h-80.922a15.405 15.405 0 0 1-15.232-13.153l-6.966-55.553a7.154 7.154 0 0 0-7.135-6.192h-5.257v-5.895h5.257a13.034 13.034 0 0 1 12.943 11.35l6.96 55.51a9.5 9.5 0 0 0 9.43 8.04h80.922z" class="cls-2"/>
        </g>
        <g id="Stroke-5">
            <path id="Path_320" d="M586.412 764.339H501.7v-5.9h81.44l2.317-3.8c4.822-7.965 6.975-17.757 6.975-31.745a5.464 5.464 0 0 0-5.538-5.374h-74.778v-5.894h74.774a11.342 11.342 0 0 1 11.391 11.274c0 10.187-.891 23.352-7.835 34.821z" class="cls-2"/>
        </g>
        <g id="Fill-7">
            <path id="Path_321" d="M525.11 798.841a9.366 9.366 0 1 1-9.366-9.363 9.363 9.363 0 0 1 9.366 9.363" class="cls-1"/>
        </g>
        <g id="Stroke-9">
            <path id="Path_322" d="M515.744 811.15a12.31 12.31 0 1 1 12.293-12.309 12.314 12.314 0 0 1-12.293 12.309zm0-18.724a6.415 6.415 0 1 0 6.44 6.415 6.434 6.434 0 0 0-6.44-6.415z" class="cls-2"/>
        </g>
        <g id="Fill-11">
            <path id="Path_323" d="M585.988 798.841a9.366 9.366 0 1 1-9.366-9.363 9.363 9.363 0 0 1 9.366 9.363" class="cls-1"/>
        </g>
        <g id="Stroke-13">
            <path id="Path_324" d="M576.623 811.15a12.31 12.31 0 1 1 12.292-12.309 12.316 12.316 0 0 1-12.292 12.309zm0-18.724a6.415 6.415 0 1 0 6.438 6.415 6.434 6.434 0 0 0-6.438-6.415z" class="cls-2"/>
        </g>
    </g>
</svg>
