<svg xmlns="http://www.w3.org/2000/svg" id="icon_m_mypage_200" width="160" height="200" viewBox="0 0 160 200">
    <defs>
        <style>
            .cls-1{fill:#bbb}
        </style>
    </defs>
    <g id="Rectangle88" transform="translate(-1076.81 -870.099)">
        <path id="패스_567" d="M1228.3 1044.7l-9.625-46.192a17.973 17.973 0 0 0-7.419-11.24l-44.1-30.232 4.466-6.614 44.1 30.232a25.944 25.944 0 0 1 10.723 16.21l9.624 46.192z" class="cls-1"/>
    </g>
    <g id="Rectangle88-2" transform="translate(-1076.81 -870.099)">
        <path id="패스_569" d="M1236.81 1070.1h-160l10-71.963a26.156 26.156 0 0 1 11.029-17.979l42.957-29.45 4.465 6.614-42.956 29.45a18.138 18.138 0 0 0-7.633 12.473l-8.731 62.855h150.869z" class="cls-1"/>
    </g>
    <g id="Rectangle" transform="translate(-1076.81 -870.099)">
        <path id="패스_570" d="M1161.6 958.941h-10.028a29.185 29.185 0 0 1-29.04-29.263v-30.315a29.186 29.186 0 0 1 29.04-29.264h10.028a29.186 29.186 0 0 1 29.04 29.264v30.315a29.185 29.185 0 0 1-29.04 29.263zm-10.029-80.841a21.207 21.207 0 0 0-21.1 21.264v30.315a21.206 21.206 0 0 0 21.1 21.263h10.029a21.206 21.206 0 0 0 21.1-21.263v-30.316a21.207 21.207 0 0 0-21.1-21.264z" class="cls-1"/>
    </g>
</svg>
