<svg xmlns="http://www.w3.org/2000/svg" id="icon_m_man" width="56" height="56" viewBox="0 0 56 56">
    <defs>
        <style>
            .cls-1{fill:#fff}
        </style>
    </defs>
    <g id="icon_f_personal-information_l_24" transform="translate(-209.995 0)">
        <path id="Path_189" d="M221.064 47.042l-3.96-.566.8-5.582a8.847 8.847 0 0 1 3.847-6.1l11.005-7.337 2.219 3.328-11.005 7.337a4.846 4.846 0 0 0-2.107 3.343z" class="cls-1"/>
        <path id="Path_190" d="M255.35 46.915l-1.112-5.624a4.8 4.8 0 0 0-2.06-3.074l-11.827-7.885L242.569 27l11.831 7.889a8.778 8.778 0 0 1 3.765 5.622l1.113 5.628z" class="cls-1"/>
        <path id="Path_191" d="M239.366 31.372h-2.736a8.851 8.851 0 0 1-8.84-8.841v-8.208a8.851 8.851 0 0 1 8.84-8.84h2.736a8.851 8.851 0 0 1 8.84 8.84v8.208a8.851 8.851 0 0 1-8.84 8.841zM236.63 9.483a4.845 4.845 0 0 0-4.84 4.84v8.208a4.845 4.845 0 0 0 4.84 4.841h2.736a4.845 4.845 0 0 0 4.84-4.841v-8.208a4.845 4.845 0 0 0-4.84-4.84z" class="cls-1"/>
        <path id="Path_192" d="M238 56a27.991 27.991 0 1 1 26.23-18.22l-3.746-1.4a24 24 0 1 0-4.393 7.382l3.019 2.625A28.036 28.036 0 0 1 238 56z" class="cls-1"/>
    </g>
</svg>
