<svg xmlns="http://www.w3.org/2000/svg" id="icon_certificate" width="140" height="160" viewBox="0 0 140 160">
    <defs>
        <style>
            .cls-1{fill:#333}
        </style>
    </defs>
    <path id="패스_478"
          d="M878.591 2107.2H821.34a19.154 19.154 0 0 1-19.064-19.2v-133.2h86.189l34.945 34.113V2031h-7.943v-38.7l-30.221-29.5h-75.027V2088a11.173 11.173 0 0 0 11.121 11.2h57.251z"
          class="cls-1" transform="translate(-802.276 -1954.8)"/>
    <path id="패스_479"
          d="M915.666 1997h-15.092a19.154 19.154 0 0 1-19.064-19.2v-15.2h7.943v15.2a11.173 11.173 0 0 0 11.121 11.2h15.092z"
          class="cls-1" transform="translate(-802.276 -1954.8)"/>
    <path id="사각형_592" d="M0 0H45.277V8H0z" class="cls-1" transform="translate(37.929 53.201)"/>
    <path id="사각형_593" d="M0 0H45.277V8H0z" class="cls-1" transform="translate(37.929 76)"/>
    <path id="사각형_594" d="M0 0H22.638V8H0z" class="cls-1" transform="translate(37.929 98.801)"/>
    <path id="패스_480"
          d="M927.184 2069.2h-38.128v-11.6a19.064 19.064 0 1 1 38.128 0zm-30.185-8h22.241v-3.6a11.121 11.121 0 1 0-22.241 0z"
          class="cls-1" transform="translate(-802.276 -1954.8)"/>
    <path id="패스_481"
          d="M942.276 2114.8h-53.022a15.362 15.362 0 0 1-15.29-15.4v-38.2h53.021a15.364 15.364 0 0 1 15.291 15.4zm-60.369-45.6v30.2a7.382 7.382 0 0 0 7.347 7.4h45.078v-30.2a7.382 7.382 0 0 0-7.347-7.4z"
          class="cls-1" transform="translate(-802.276 -1954.8)"/>
    <path id="사각형_595" d="M0 0H7.943V15.2H0z" class="cls-1" transform="translate(101.872 125.6)"/>
</svg>
