<svg xmlns="http://www.w3.org/2000/svg" width="312" height="320" viewBox="0 0 312 320">
    <defs>
        <style>
            .cls-2{fill:#070607}
        </style>
    </defs>
    <g id="icon_visual_application" transform="translate(-67.25 -237.428)">
        <g id="icon">
            <g id="Fill-1">
                <path id="패스_544" fill="#ffbf00"
                      d="M301.3 550.178H102.789c-13.669 0-28.359-14.327-28.359-27.773V244.679h198.514c13.669 0 28.359 14.326 28.359 27.772"/>
            </g>
            <g id="Stroke-3">
                <path id="패스_545"
                      d="M309.706 557.428H102.663c-17.541 0-35.413-17.675-35.413-35.023V237.428h204.812c8.7 0 17.779 4.185 24.922 11.48 6.757 6.9 10.581 15.515 10.49 23.626v222.1h-14.359V272.451c.048-4.283-2.323-9.241-6.343-13.347-4.332-4.425-9.968-7.174-14.71-7.174H81.609v270.475c0 9.4 11.412 20.522 21.054 20.522h207.043z"
                      class="cls-2"/>
            </g>
            <g id="Stroke-5">
                <path id="사각형_669" d="M0 0H92.43V14.502H0z" class="cls-2" transform="translate(158.457 458.066)"/>
            </g>
            <g id="Stroke-7">
                <path id="사각형_670" d="M0 0H16.806V14.502H0z" class="cls-2" transform="translate(124.846 458.066)"/>
            </g>
            <g id="Stroke-9">
                <path id="사각형_671" d="M0 0H92.43V14.502H0z" class="cls-2" transform="translate(158.457 407.15)"/>
            </g>
            <g id="Stroke-11">
                <path id="사각형_672" d="M0 0H16.806V14.502H0z" class="cls-2" transform="translate(124.846 407.15)"/>
            </g>
            <g id="Stroke-13">
                <path id="사각형_673" d="M0 0H92.43V14.502H0z" class="cls-2" transform="translate(158.457 356.233)"/>
            </g>
            <g id="Stroke-15">
                <path id="사각형_674" d="M0 0H16.806V14.502H0z" class="cls-2" transform="translate(124.846 356.233)"/>
            </g>
            <g id="Stroke-17">
                <path id="사각형_675" d="M0 0H92.43V14.502H0z" class="cls-2" transform="translate(158.457 305.317)"/>
            </g>
            <g id="Stroke-19">
                <path id="사각형_676" d="M0 0H16.806V14.502H0z" class="cls-2" transform="translate(124.846 305.317)"/>
            </g>
            <g id="Fill-21">
                <path id="패스_546" fill="#fff"
                      d="M272.707 433.246l91.65-87.072a24.978 24.978 0 0 0 .391-36.064l-14.656-14.51L202.63 435.691l-15.242 46.6 48.278-13.861 11.48-10.894z"/>
            </g>
            <g id="Stroke-23">
                <path id="패스_547"
                      d="M176.036 502.239l21.882-66.3 149.121-150.6 21.594 21.809a28.786 28.786 0 0 1 10.616 22.67 28.328 28.328 0 0 1-10.649 22.145L241.682 480.141zm34.433-58.463l-11.729 35.535 35.186-11.846 125.189-126.43.39-.3a13.873 13.873 0 0 0 5.385-11.021 14.333 14.333 0 0 0-5.467-11.435l-.345-.272-12.039-12.159z"
                      class="cls-2"/>
            </g>
        </g>
    </g>
</svg>
