<svg xmlns="http://www.w3.org/2000/svg" id="icon_m_pattern_disable01" width="64" height="64" viewBox="0 0 64 64">
    <defs>
        <style>
            .cls-2{fill:#333}
        </style>
    </defs>
    <path id="Rectangle_347" fill="none" d="M0 0H64V64H0z"/>
    <g id="Group_183" transform="translate(-517.869)">
        <path id="Path_212" d="M549.869 37.269a5.083 5.083 0 1 1 5-5.082 5.041 5.041 0 0 1-5 5.082z" class="cls-2"/>
        <path id="Path_213" d="M524.869 37.269a5.083 5.083 0 1 1 5-5.082 5.041 5.041 0 0 1-5 5.082z" class="cls-2"/>
        <path id="Path_214" d="M574.869 37.269a5.083 5.083 0 1 1 5-5.082 5.041 5.041 0 0 1-5 5.082z" class="cls-2"/>
        <path id="Path_215" d="M549.869 64a5.083 5.083 0 1 1 5-5.082 5.041 5.041 0 0 1-5 5.082z" class="cls-2"/>
        <path id="Path_216" d="M524.869 64a5.083 5.083 0 1 1 5-5.082 5.041 5.041 0 0 1-5 5.082z" class="cls-2"/>
        <path id="Path_217" d="M574.869 64a5.083 5.083 0 1 1 5-5.082 5.041 5.041 0 0 1-5 5.082z" class="cls-2"/>
        <path id="Path_218" d="M549.869 10.164a5.041 5.041 0 0 1-5-5.082 5 5 0 1 1 10 0 5.042 5.042 0 0 1-5 5.082z" class="cls-2"/>
        <path id="Path_219" d="M524.869 10.165a5.042 5.042 0 0 1-5-5.083 5 5 0 1 1 10 0 5.042 5.042 0 0 1-5 5.083z" class="cls-2"/>
        <path id="Path_220" d="M574.869 10.164a5.041 5.041 0 0 1-5-5.082 5 5 0 1 1 10 0 5.042 5.042 0 0 1-5 5.082z" class="cls-2"/>
        <path id="Path_221" d="M576.753 60.917h-47.515a6.371 6.371 0 0 1-6.254-6.467V4.039h48.179a6.37 6.37 0 0 1 6.254 6.467v9.275h-3.983v-9.275a2.378 2.378 0 0 0-2.271-2.467h-44.2V54.45a2.378 2.378 0 0 0 2.271 2.467h47.515z" class="cls-2"/>
    </g>
</svg>
