<svg xmlns="http://www.w3.org/2000/svg" id="icon_m_coupon" width="120" height="80" viewBox="0 0 120 80">
    <defs>
        <style>
            .cls-1{fill:#fff}
        </style>
    </defs>
    <g id="Rectangle33" transform="translate(-532.542 -895.723)">
        <path id="Path_389" d="M649.86 975.723H547.548c-8.274 0-15.006-6.453-15.006-14.385v-65.615h104.994c8.274 0 15.006 6.453 15.006 14.384v47.914h-6.016v-47.914c0-4.623-4.034-8.384-8.99-8.384h-98.978v59.615c0 4.623 4.034 8.385 8.99 8.385H649.86z" class="cls-1"/>
    </g>
    <g id="Group_155" transform="translate(-532.542 -895.723)">
        <g id="Stroke21">
            <path id="Rectangle_471" d="M0 0H6.016V12.706H0z" class="cls-1" transform="translate(553.563 902.958)"/>
        </g>
    </g>
    <g id="Group_157" transform="translate(-532.542 -895.723)">
        <g id="Group_156">
            <path id="Path_390" d="M583.657 927.143a5.818 5.818 0 0 1 .683-2.795 6.938 6.938 0 0 1 1.83-2.194 8.834 8.834 0 0 1 2.637-1.436 9.543 9.543 0 0 1 6.22 0 8.839 8.839 0 0 1 2.638 1.436 6.963 6.963 0 0 1 1.83 2.194 6.054 6.054 0 0 1 0 5.587 6.971 6.971 0 0 1-1.83 2.2 8.818 8.818 0 0 1-2.638 1.437 9.595 9.595 0 0 1-6.22 0 8.813 8.813 0 0 1-2.637-1.437 6.946 6.946 0 0 1-1.83-2.2 5.809 5.809 0 0 1-.683-2.792zm5.495 0a4.714 4.714 0 0 0 .166 1.255 3.725 3.725 0 0 0 .511 1.119 2.837 2.837 0 0 0 .856.819 2.554 2.554 0 0 0 2.465 0 2.892 2.892 0 0 0 .855-.819 3.722 3.722 0 0 0 .511-1.119 4.815 4.815 0 0 0 0-2.514 3.7 3.7 0 0 0-.511-1.116 2.642 2.642 0 0 0-.855-.8 2.674 2.674 0 0 0-2.465 0 2.6 2.6 0 0 0-.856.8 3.707 3.707 0 0 0-.511 1.116 4.744 4.744 0 0 0-.166 1.259zm18.054-6.425h5.536l-16.782 30.01h-5.531zm-4.26 23.584a5.809 5.809 0 0 1 .683-2.792 6.971 6.971 0 0 1 1.83-2.2 8.818 8.818 0 0 1 2.638-1.437 9.595 9.595 0 0 1 6.22 0 8.813 8.813 0 0 1 2.637 1.437 6.945 6.945 0 0 1 1.83 2.2 6.054 6.054 0 0 1 0 5.587 6.938 6.938 0 0 1-1.83 2.194 8.837 8.837 0 0 1-2.637 1.437 9.561 9.561 0 0 1-6.22 0 8.843 8.843 0 0 1-2.638-1.437 6.964 6.964 0 0 1-1.83-2.194 5.807 5.807 0 0 1-.683-2.797zm5.495 0a4.744 4.744 0 0 0 .167 1.259 3.68 3.68 0 0 0 .511 1.116 2.63 2.63 0 0 0 .855.8 2.7 2.7 0 0 0 2.465 0 2.644 2.644 0 0 0 .856-.8 3.7 3.7 0 0 0 .511-1.116 4.843 4.843 0 0 0 0-2.514 3.5 3.5 0 0 0-.511-1.1 2.73 2.73 0 0 0-.856-.776 2.674 2.674 0 0 0-2.465 0 2.716 2.716 0 0 0-.855.776 3.475 3.475 0 0 0-.511 1.1 4.715 4.715 0 0 0-.167 1.253z" class="cls-1"/>
        </g>
    </g>
    <g id="Group_158" transform="translate(-532.542 -895.723)">
        <g id="Stroke21-2">
            <path id="Rectangle_472" d="M0 0H6.016V12.705H0z" class="cls-1" transform="translate(553.563 924.135)"/>
        </g>
    </g>
    <g id="Group_159" transform="translate(-532.542 -895.723)">
        <g id="Stroke21-3">
            <path id="Rectangle_473" d="M0 0H6.016V12.706H0z" class="cls-1" transform="translate(553.563 945.311)"/>
        </g>
    </g>
</svg>
