<svg xmlns="http://www.w3.org/2000/svg" id="icon_m_point02" width="132" height="116" viewBox="0 0 132 116">
    <defs>
        <style>
            .cls-1{fill:#070607}
        </style>
    </defs>
    <g id="Stroke-1" transform="translate(49.143 50.974)">
        <path id="Path_311" d="M590.795 673.386c-4.242 0-41.43-.321-41.43-11.4h5.714a.739.739 0 0 0-.067-.326c1.247 2.162 14.273 6.026 35.783 6.026s34.531-3.864 35.779-6.026a.74.74 0 0 0-.067.326h5.715c0 11.079-37.188 11.4-41.427 11.4z" class="cls-1" transform="translate(-549.365 -661.66)"/>
    </g>
    <g id="Stroke-3" transform="translate(49.143 31.024)">
        <path id="Path_312" d="M590.795 653.436c-4.242 0-41.43-.321-41.43-11.4h5.714a.739.739 0 0 0-.067-.326c1.247 2.162 14.273 6.026 35.783 6.026s34.531-3.864 35.779-6.026a.74.74 0 0 0-.067.326h5.715c0 11.079-37.188 11.4-41.427 11.4z" class="cls-1" transform="translate(-549.365 -641.71)"/>
    </g>
    <g id="Stroke-7" transform="translate(49.143 11.074)">
        <path id="Path_313" d="M590.795 633.486c-4.242 0-41.43-.321-41.43-11.4h5.714a.739.739 0 0 0-.067-.326c1.247 2.162 14.273 6.026 35.783 6.026s34.531-3.864 35.779-6.026a.74.74 0 0 0-.067.326h5.715c0 11.079-37.188 11.4-41.427 11.4z" class="cls-1" transform="translate(-549.365 -621.76)"/>
    </g>
    <g id="Stroke-5" transform="translate(49.143)">
        <path id="Path_314" d="M590.795 696.186c-10.542 0-20.486-1.085-28-3.052-8.911-2.334-13.429-5.665-13.429-9.9v-59.6c0-4.234 4.518-7.566 13.429-9.9 7.515-1.967 17.459-3.051 28-3.051s20.482 1.084 28 3.051c8.91 2.334 13.429 5.666 13.429 9.9v59.6c0 4.235-4.519 7.566-13.429 9.9-7.518 1.966-17.461 3.052-28 3.052zm-35.716-12.965c.453 2.008 12.081 7.265 35.716 7.265 23.66 0 35.288-5.27 35.714-7.273v-59.576c-.424-1.981-12.052-7.251-35.712-7.251s-35.292 5.27-35.718 7.272zm0-.008" class="cls-1" transform="translate(-549.365 -610.686)"/>
    </g>
    <g id="Fill-9" transform="translate(2.857 37.624)">
        <path id="Path_315" fill="#ffbf00" d="M589.364 685.36a37.143 37.143 0 1 0-37.144 37.05 37.1 37.1 0 0 0 37.144-37.05" transform="translate(-515.079 -648.31)"/>
    </g>
    <g id="Stroke-11" transform="translate(0 36.2)">
        <path id="Path_316" d="M552.222 726.686a39.994 39.994 0 0 1-40-39.9 39.577 39.577 0 0 1 16.008-31.932c.91-.677 1.849-1.319 2.8-1.912l2.421-1.514 3.035 4.829-2.42 1.514c-.816.511-1.625 1.065-2.405 1.645a33.924 33.924 0 0 0-13.721 27.37 34.286 34.286 0 1 0 34.286-34.2h-2.857v-5.7h2.857a39.9 39.9 0 1 1 0 79.8z" class="cls-1" transform="translate(-512.222 -646.886)"/>
    </g>
    <g id="Stroke-15" transform="translate(26.139 63.14)">
        <path id="Path_317" d="M559.179 703.886h-.1a2.856 2.856 0 0 1-2.652-2.068l-4.226-14.8-4.192 14.792a2.86 2.86 0 0 1-5.436.2c-1.484-4.083-2.847-8.379-4.051-12.767-1.191-4.33-2.326-8.772-3.37-13.2l5.56-1.305c1.03 4.361 2.147 8.735 3.321 13q.492 1.791 1.018 3.559l4.363-15.392a2.856 2.856 0 0 1 2.749-2.074 2.922 2.922 0 0 1 2.8 2.069l4.4 15.416c.247-.85.488-1.719.737-2.611l.2-.719c.631-2.259 1.252-4.569 1.818-6.8.419-1.656.811-3.253 1.189-4.789l.416-1.689 5.549 1.363-.416 1.684c-.38 1.549-.775 3.155-1.2 4.826-.579 2.277-1.211 4.632-1.853 6.933l-.2.718c-.585 2.093-1.134 4.069-1.811 6.044-.294.859-.559 1.659-.813 2.426-.378 1.146-.735 2.221-1.125 3.3a2.853 2.853 0 0 1-2.675 1.884z" class="cls-1" transform="translate(-535.156 -673.826)"/>
    </g>
    <g id="Stroke-17" transform="translate(22.154 71.825)">
        <path id="Rectangle_411" d="M0 0H8.571V5.7H0z" class="cls-1"/>
    </g>
    <g id="Stroke-19" transform="translate(56.967 71.825)">
        <path id="Rectangle_412" d="M0 0H8.571V5.7H0z" class="cls-1"/>
    </g>
</svg>
