<svg xmlns="http://www.w3.org/2000/svg" width="64" height="64" viewBox="0 0 63.999 64.001">
    <defs>
        <style>
            .cls-2{fill:#333}
        </style>
    </defs>
    <g id="icon_visual_company-customer" transform="translate(-211.624 -224.836)">
        <path fill="#fcaf17" d="M258.462 264.329h-32.379a5.349 5.349 0 0 1-5.394-5.305v-32.157h32.38a5.35 5.35 0 0 1 5.393 5.306z"/>
        <path d="M258.462 288.836h-30.909a8.889 8.889 0 0 1-8.916-8.84v-55.16h32.953a8.889 8.889 0 0 1 8.914 8.841v9.673h-4.094v-9.673a4.806 4.806 0 0 0-4.82-4.78h-28.859v51.1a4.808 4.808 0 0 0 4.822 4.781h30.909z" class="cls-2"/>
        <path  d="M0 0H63.459V4.06H0z" class="cls-2" transform="translate(211.624 284.776)"/>
        <path d="M235.8 246.879h-6.58v-11.021h4.094v6.96h2.486z" class="cls-2"/>
        <path  d="M247.885 246.879h-6.579v-11.021h4.094v6.96h2.485z" class="cls-2"/>
        <path id="Path_295" d="M235.8 261.864h-6.58v-11.022h4.094v6.958h2.486z" class="cls-2"/>
        <path id="Path_296" d="M235.8 276.849h-6.58v-11.021h4.094v6.96h2.486z" class="cls-2"/>
        <path id="Path_297" fill="#fff" d="M273.571 269.253h-11.785v11.165h-2.229a5.311 5.311 0 0 1-5.259-5.364v-5.8h-5.692a5.314 5.314 0 0 1-5.259-5.365v-2.273H254.3v-11.167h2.448a5.09 5.09 0 0 1 5.04 5.141v6.024h6.52a5.313 5.313 0 0 1 5.259 5.365z"/>
        <path id="Path_298" d="M263.833 282.448h-4.275a7.365 7.365 0 0 1-7.307-7.423v-3.742h-3.644a7.369 7.369 0 0 1-7.307-7.422v-4.276h10.951v-11.167h4.495a7.144 7.144 0 0 1 7.087 7.2v3.966h4.473a7.368 7.368 0 0 1 7.306 7.423l.011 4.275h-11.79zm-9.533-15.225h2.047v7.831a3.284 3.284 0 0 0 3.242 3.334h.152v-11.165h11.78v-.238a3.287 3.287 0 0 0-3.242-3.34h-8.537v-8.054a3.062 3.062 0 0 0-3.022-3.112h-.372v11.166h-10.954v.244a3.285 3.285 0 0 0 3.243 3.334z" class="cls-2"/>
    </g>
</svg>
