<svg xmlns="http://www.w3.org/2000/svg" id="icon_m_piont" width="56" height="56" viewBox="0 0 56 56">
    <defs>
        <style>
            .cls-1{fill:#fff}
        </style>
    </defs>
    <g id="icon_m_guide_l_24" transform="translate(-70)">
        <path id="Path_194" d="M98 56a27.994 27.994 0 1 1 23.367-12.569l-.258.336-3.126-2.5.1-.121a24 24 0 1 0-5.991 6.282l2.35 3.236A27.794 27.794 0 0 1 98 56z" class="cls-1"/>
        <path id="Path_195" d="M90.029 40.956v-24.3a41.268 41.268 0 0 1 4.255-1.156 18.922 18.922 0 0 1 3.955-.46 10 10 0 0 1 3.467.607 8.634 8.634 0 0 1 2.9 1.757 8.448 8.448 0 0 1 1.989 2.808 9.177 9.177 0 0 1 .737 3.76 9.563 9.563 0 0 1-.638 3.547 7.858 7.858 0 0 1-1.823 2.759 8.51 8.51 0 0 1-2.857 1.806 10.189 10.189 0 0 1-3.745.657 11.523 11.523 0 0 1-1.742-.131 17.4 17.4 0 0 1-1.74-.362v8.7zm12.58-17.144a5.8 5.8 0 0 0-1.085-3.761 4.067 4.067 0 0 0-3.349-1.329 10.1 10.1 0 0 0-1.577.148 11.494 11.494 0 0 0-1.806.442v9.164a9.769 9.769 0 0 0 1.643.41 10.983 10.983 0 0 0 1.673.114 3.993 3.993 0 0 0 3.467-1.429 6.268 6.268 0 0 0 1.034-3.759z" class="cls-1"/>
    </g>
</svg>
