<svg xmlns="http://www.w3.org/2000/svg" width="180" height="180" viewBox="0 0 180 176">
    <defs>
        <style>
            .cls-3{fill:#333}
        </style>
    </defs>
    <g id="icon_m__banner" transform="translate(-228.833 -208.813)">
        <path id="패스_385" fill="#fcaf17" d="M398.9 342.724l1.125-124.685H236.9l1.069 125.818z"/>
        <path id="패스_386" fill="#fefefe" d="M252.833 326.272h131.625v-93.287H252.833z"/>
        <path id="사각형_490" d="M0 0H112.126V9.064H0z" class="cls-3" transform="translate(262.583 375.749)"/>
        <path id="사각형_491" d="M0 0H92.625V9.064H0z" class="cls-3" transform="translate(316.208 341.379)"/>
        <path id="패스_387" d="M320.708 380.281h-9v-29.837H253.1a22.371 22.371 0 0 1-17.668-5.4 18.8 18.8 0 0 1-6.6-13.858V208.813h155.627a24.114 24.114 0 0 1 24 24.172v83.468h-9v-83.468a15.254 15.254 0 0 0-15-15.107H237.833v113.3a9.884 9.884 0 0 0 3.557 7.066 13.509 13.509 0 0 0 10.891 3.166l.552-.035h67.875z" class="cls-3"/>
        <path id="패스_388" d="M286.817 303.477l-5.122-4.429 21.788-25.554 17.167 14.266 25.97-32.882 5.282 4.232-30.248 38.3-17.362-14.43z" class="cls-3"/>
        <path id="패스_389" d="M354.529 286.248h-6.75v-27.686h-28.365v-6.8h35.115z" class="cls-3"/>
    </g>
</svg>
