<svg xmlns="http://www.w3.org/2000/svg" id="icon_visual_internet" width="252" height="320" viewBox="0 0 252 320">
    <defs>
        <style>
            .cls-2{fill:#333}
        </style>
    </defs>
    <g id="icon" transform="translate(-1059 -895.428)">
        <path id="패스_483" fill="#fcaf17"
              d="M1275.468 1114.869c-56.714 25.311-115.714 20.448-162.14-26.826-36.226-36.89-53.717-84.083-46.545-131.982 2.739-18.275 26.05-22.838 38.888-9.765z"/>
        <path id="사각형_608" d="M0 0H216.741V12H0z" class="cls-2" transform="translate(1065.005 1203.428)"/>
        <path id="패스_484"
              d="M1264.556 1001.528h-12.064a48.08 48.08 0 0 0-48.153-47.9v-12a60.127 60.127 0 0 1 60.217 59.9z"
              class="cls-2"/>
        <path id="패스_485"
              d="M1311 1001.528h-12.064c0-51.887-42.436-94.1-94.6-94.1v-12c58.816 0 106.664 47.596 106.664 106.1z"
              class="cls-2"/>
        <path id="패스_486"
              d="M1221.436 1138.39a143.771 143.771 0 0 1-50.187-9.219l4.253-11.231c34.272 12.843 71.411 10.956 96.876-4.48l-98.419-99.847 31.233-31.686 8.614 8.4-22.951 23.283 100.022 101.474-5.515 4.108c-17.007 12.676-39.737 19.197-63.926 19.198z"
              class="cls-2"/>
        <path id="패스_487"
              d="M1137.744 1209.428h-12.063v-96.565c-1.276-1.18-2.513-2.306-3.707-3.394-5.084-4.631-9.488-8.643-13.2-13.228a172.147 172.147 0 0 1-41.413-67.339c-8.379-25.048-10.548-51-6.107-73.081 2.089-10.387 9.01-18.2 18.513-20.914 9.919-2.827 20.6.489 28.591 8.873l46.025 45-8.457 8.558-46.266-45.238c-4.847-5.118-11.046-7.232-16.571-5.654-5.155 1.47-8.8 5.746-10.007 11.732-8.478 42.148 9.8 95.523 44.442 129.8l.467.519c3.168 3.961 7.321 7.745 12.131 12.128 1.817 1.654 3.728 3.4 5.729 5.273l1.893 1.777z"
              class="cls-2"/>
    </g>
</svg>
