<svg id="icon_m_gift_80" xmlns="http://www.w3.org/2000/svg" width="72" height="80">
    <defs>
        <style>
            .cls-2{fill:#333}
        </style>
    </defs>
    <path id="Path_499" data-name="Path 499" d="M1443.263 1377.49a7.8 7.8 0 0 0-7.633-7.963h-60.393v15.2h4.861v37.644a7.8 7.8 0 0 0 7.633 7.961h50.674v-45.605h4.858z" transform="translate(-1373.25 -1350.428)" style="fill:#fcaf17"/>
    <path id="Rectangle_619" data-name="Rectangle 619" class="cls-2" transform="translate(34.179 19.771)" d="M0 0h3.973v57.004H0z"/>
    <path id="Path_500" data-name="Path 500" class="cls-2" d="M1439.484 1430.428h-51.83c-6.562 0-10.625-4.291-10.625-8.268v-37.529h60.3v3.995H1381v33.534c0 1.747 2.369 4.273 6.652 4.273h51.83z" transform="translate(-1373.25 -1350.428)"/>
    <path id="Path_501" data-name="Path 501" class="cls-2" d="M1441 1415.13h-3.973v-30.5h4.252v-6.418c0-4.126-2.5-6.688-6.517-6.688h-57.537v13.106h4.391v3.995h-8.364v-21.1h61.51c6.176 0 10.49 4.393 10.49 10.683v10.413H1441z" transform="translate(-1373.25 -1350.428)"/>
    <path id="Path_502" data-name="Path 502" class="cls-2" d="M1417.753 1371.525h-10.49v-10.549a10.49 10.49 0 1 1 10.49 10.549zm-6.516-3.995h6.516a6.554 6.554 0 1 0-6.516-6.554z" transform="translate(-1373.25 -1350.428)"/>
    <path id="Path_503" data-name="Path 503" class="cls-2" d="M1411.237 1371.525h-10.491a10.549 10.549 0 1 1 10.491-10.549zm-10.491-17.1a6.554 6.554 0 0 0 0 13.107h6.517v-6.554a6.543 6.543 0 0 0-6.517-6.555z" transform="translate(-1373.25 -1350.428)"/>
</svg>
