<svg xmlns="http://www.w3.org/2000/svg" id="icon_m_mypage_l_24" width="128" height="160" viewBox="0 0 128 160">
    <defs>
        <style>
            .cls-1{fill:#333}
        </style>
    </defs>
    <path id="패스_474"
          d="M1137.442 1247.332l-7.649-36.662a13.5 13.5 0 0 0-5.544-8.306l-34.927-23.915 4.471-6.614 34.927 23.914a21.29 21.29 0 0 1 8.852 13.277l7.649 36.662z"
          class="cls-1" transform="translate(-1017.221 -1108.099)"/>
    <path id="패스_476"
          d="M1145 1268.1h-127.779l8.071-58.025a21.437 21.437 0 0 1 9.093-14.709l34.04-23.307 4.471 6.614-34.04 23.307a13.412 13.412 0 0 0-5.691 9.2l-6.8 48.916H1145z"
          class="cls-1" transform="translate(-1017.221 -1108.099)"/>
    <path id="패스_477"
          d="M1085.383 1180.1h-7.949a23.951 23.951 0 0 1-23.847-24v-24a23.952 23.952 0 0 1 23.847-24h7.949a23.952 23.952 0 0 1 23.848 24v24a23.951 23.951 0 0 1-23.848 24zm-7.949-64a15.968 15.968 0 0 0-15.9 16v24a15.967 15.967 0 0 0 15.9 16h7.949a15.968 15.968 0 0 0 15.9-16v-24a15.968 15.968 0 0 0-15.9-16z"
          class="cls-1" transform="translate(-1017.221 -1108.099)"/>
</svg>
