<svg xmlns="http://www.w3.org/2000/svg" id="icon_m_q" width="64.001" height="64.001" viewBox="0 0 64.001 64.001">
    <defs>
        <style>
            .cls-1{fill:#333}
        </style>
    </defs>
    <g id="icon_m_search_l_24" transform="translate(-148.236 -74.148)">
        <path id="Path_233" d="M179.244 138.149a30.065 30.065 0 0 1-3.851-.248c-16.952-2.186-29.028-18.2-26.918-35.7a31.967 31.967 0 0 1 12.1-21.6 30.137 30.137 0 0 1 22.512-6.2C200.034 76.586 212.11 92.6 210 110.1a32.576 32.576 0 0 1-3.518 11.33l-3.557-1.875a28.6 28.6 0 0 0 3.083-9.937c1.846-15.315-8.669-29.325-23.44-31.23a26.14 26.14 0 0 0-19.529 5.389 27.975 27.975 0 0 0-10.572 18.9c-1.846 15.315 8.669 29.325 23.44 31.23a26.369 26.369 0 0 0 21.367-6.957l2.74 2.945a30.452 30.452 0 0 1-20.77 8.254z" class="cls-1"/>
        <path id="Rectangle_349" d="M0 0H4.022V26.581H0z" class="cls-1" transform="translate(190.921 116.263) rotate(-43.852)"/>
    </g>
</svg>
