<svg xmlns="http://www.w3.org/2000/svg" width="56" height="56" viewBox="0 0 56 56">
    <path fill="#fff" d="M465.931 671L449 661.739l-15.49 8.473a1.664 1.664 0 0 1-1.746-.094 1.618 1.618 0 0 1-.676-1.594l2.975-18.059-12.595-12.775a1.613 1.613 0 0 1-.382-1.655 1.641 1.641 0 0 1 1.313-1.095l17.341-2.621 7.77-16.382A1.648 1.648 0 0 1 449 615a1.648 1.648 0 0 1 1.491.937l7.77 16.382 17.339 2.621a1.641 1.641 0 0 1 1.313 1.095 1.613 1.613 0 0 1-.382 1.655l-12.6 12.775 1.772 10.75-3.251.524-1.906-11.561a1.619 1.619 0 0 1 .446-1.4l10.938-11.093-15.04-2.273a1.648 1.648 0 0 1-1.243-.919L449 620.466l-6.652 14.025a1.648 1.648 0 0 1-1.242.919l-15.041 2.273L437 648.777a1.619 1.619 0 0 1 .446 1.4l-2.564 15.559 13.318-7.285a1.659 1.659 0 0 1 1.594 0l17.727 9.7z" transform="translate(-421 -615)"/>
</svg>
