<svg xmlns="http://www.w3.org/2000/svg" id="icon_m_alram_l_24" width="64" height="64" viewBox="0 0 64 64">
    <defs>
        <style>
            .cls-1{fill:#333}
        </style>
    </defs>
    <g id="그룹_201" transform="translate(-1096.396 -1385.428)">
        <g id="Stroke-7">
            <path id="패스_457" d="M1105.561 1449.428l-3.239-2.389 8.785-11.565 3.239 2.389z" class="cls-1"/>
        </g>
        <g id="Stroke-9">
            <path id="패스_458" d="M1150.906 1449.428l-8.785-11.565 3.239-2.389 8.785 11.565z" class="cls-1"/>
        </g>
        <g id="icon_m_countdown_l_24">
            <g id="Oval">
                <path id="패스_459" d="M1131.565 1445a28.4 28.4 0 1 1 25.671-31.26 27.979 27.979 0 0 1-3.1 16.061l-.226.364-3.407-2.141.087-.134a24.052 24.052 0 0 0 2.62-13.725 24.51 24.51 0 1 0-8.164 20.843l2.375 3.184a27.327 27.327 0 0 1-15.856 6.808z" class="cls-1"/>
            </g>
            <g id="Path-4">
                <path id="패스_460" d="M1118.1 1429.749l-2.861-2.819 11.626-11.458v-13.994h4.046v15.645z" class="cls-1"/>
            </g>
        </g>
        <g id="Stroke-21">
            <path id="패스_461" d="M1156.054 1410.494l-2.848-2.833a10.348 10.348 0 0 0 3.144-7.474 10.638 10.638 0 0 0-3.179-7.569 10.952 10.952 0 0 0-7.65-3.2 10.731 10.731 0 0 0-7.613 3.031l-2.848-2.833a14.991 14.991 0 0 1 20.986.2 14.569 14.569 0 0 1 4.35 10.37 14.275 14.275 0 0 1-4.342 10.308z" class="cls-1"/>
        </g>
        <g id="Stroke-21-2">
            <path id="패스_462" d="M1100.739 1410.494a14.28 14.28 0 0 1-4.343-10.312 14.57 14.57 0 0 1 4.351-10.37 15 15 0 0 1 10.482-4.384h.159a14.7 14.7 0 0 1 10.344 4.186l-2.848 2.833a10.633 10.633 0 0 0-7.613-3.031 10.954 10.954 0 0 0-7.65 3.2 10.637 10.637 0 0 0-3.178 7.569 10.344 10.344 0 0 0 3.144 7.474z" class="cls-1"/>
        </g>
    </g>
</svg>
