<svg xmlns="http://www.w3.org/2000/svg" id="icon_m_cloud" width="64" height="44" viewBox="0 0 64 44">
    <defs>
        <style>
            .cls-1{fill:#fff}
        </style>
    </defs>
    <g id="Group_41" transform="translate(-181.02 -398.373)">
        <path id="Path_359" d="M193.417 429.723h-2.064a10.471 10.471 0 0 1-10.333-10.582 10.614 10.614 0 0 1 6.248-9.711 12.615 12.615 0 0 1 12.311-11.057 12.427 12.427 0 0 1 10.734 6.317l-3.475 1.982a8.419 8.419 0 0 0-7.259-4.3 8.626 8.626 0 0 0-8.419 8.54l-.032 1.482-1.427.4a6.55 6.55 0 0 0-4.681 6.345 6.468 6.468 0 0 0 6.333 6.582h2.064z" class="cls-1"/>
    </g>
    <g id="Group_42" transform="translate(-181.02 -398.373)">
        <path id="Path_360" d="M233.342 442.373v-4a8.063 8.063 0 0 0 .932-16.009l-1.637-.208-.107-1.647a5.863 5.863 0 0 0-5.707-5.6 5.476 5.476 0 0 0-1.177.129l-1.5.331-.708-1.369a10.976 10.976 0 0 0-9.719-6.065A11.335 11.335 0 0 0 202.7 419.2l-.032 1.479-1.423.4a8.759 8.759 0 0 0-6.22 8.49 8.627 8.627 0 0 0 8.417 8.8h24.529v4h-24.534a12.63 12.63 0 0 1-12.417-12.8 12.837 12.837 0 0 1 7.77-11.865 15.311 15.311 0 0 1 14.929-13.766 14.9 14.9 0 0 1 12.558 6.987A9.819 9.819 0 0 1 236.3 418.7a12.081 12.081 0 0 1-2.958 23.678z" class="cls-1"/>
    </g>
</svg>
