<svg xmlns="http://www.w3.org/2000/svg" id="icon_m_cuppon" width="56" height="56" viewBox="0 0 56 56">
    <defs>
        <style>
            .cls-2{fill:#fff}
        </style>
    </defs>
    <path id="Rectangle_174" fill="none" d="M0 0H56V56H0z"/>
    <g id="icon_f_simplecertification_l_24" transform="translate(-280)">
        <path id="Path_198" d="M334.144 47h-46.666A7.366 7.366 0 0 1 280 39.769V9h48.522A7.366 7.366 0 0 1 336 16.231v22.015h-4.011V16.231A3.359 3.359 0 0 0 328.522 13h-44.511v26.769A3.359 3.359 0 0 0 287.478 43h46.666z" class="cls-2"/>
        <path id="Rectangle_322" d="M0 0H4.011V6H0z" class="cls-2" transform="translate(289.588 13)"/>
        <path id="Path_199" d="M303.947 23.948a2.816 2.816 0 0 1 .312-1.319 3.248 3.248 0 0 1 .835-1.036 3.963 3.963 0 0 1 1.2-.679 4.213 4.213 0 0 1 2.837 0 3.987 3.987 0 0 1 1.2.679 3.258 3.258 0 0 1 .834 1.036 2.944 2.944 0 0 1 0 2.638 3.273 3.273 0 0 1-.834 1.037 4.006 4.006 0 0 1-1.2.678 4.229 4.229 0 0 1-2.837 0 3.981 3.981 0 0 1-1.2-.678 3.262 3.262 0 0 1-.835-1.037 2.813 2.813 0 0 1-.312-1.319zm2.507 0a2.275 2.275 0 0 0 .076.593 1.782 1.782 0 0 0 .233.529 1.316 1.316 0 0 0 .39.386 1.128 1.128 0 0 0 1.124 0 1.344 1.344 0 0 0 .391-.386 1.808 1.808 0 0 0 .233-.529 2.385 2.385 0 0 0 0-1.187 1.8 1.8 0 0 0-.233-.527 1.212 1.212 0 0 0-.391-.377 1.183 1.183 0 0 0-1.124 0 1.189 1.189 0 0 0-.39.377 1.77 1.77 0 0 0-.233.527 2.294 2.294 0 0 0-.076.594zm8.234-3.034h2.526l-7.655 14.172h-2.523zm-1.942 11.138a2.812 2.812 0 0 1 .311-1.319 3.262 3.262 0 0 1 .835-1.037 3.981 3.981 0 0 1 1.2-.678 4.229 4.229 0 0 1 2.837 0 4.006 4.006 0 0 1 1.2.678 3.273 3.273 0 0 1 .834 1.037 2.944 2.944 0 0 1 0 2.638 3.258 3.258 0 0 1-.834 1.036 3.987 3.987 0 0 1-1.2.679 4.213 4.213 0 0 1-2.837 0 3.963 3.963 0 0 1-1.2-.679 3.248 3.248 0 0 1-.835-1.036 2.812 2.812 0 0 1-.311-1.319zm2.506 0a2.294 2.294 0 0 0 .076.594 1.77 1.77 0 0 0 .233.527 1.209 1.209 0 0 0 .39.377 1.191 1.191 0 0 0 1.124 0 1.212 1.212 0 0 0 .391-.377 1.8 1.8 0 0 0 .233-.527 2.356 2.356 0 0 0 0-1.187 1.7 1.7 0 0 0-.233-.52 1.266 1.266 0 0 0-.391-.366 1.183 1.183 0 0 0-1.124 0 1.262 1.262 0 0 0-.39.366 1.675 1.675 0 0 0-.233.52 2.275 2.275 0 0 0-.076.593z" class="cls-2"/>
        <path id="Rectangle_323" d="M0 0H4.011V6H0z" class="cls-2" transform="translate(289.588 23)"/>
        <path id="Rectangle_324" d="M0 0H4.011V6H0z" class="cls-2" transform="translate(289.588 33)"/>
    </g>
</svg>
