<svg xmlns="http://www.w3.org/2000/svg" id="icon_visual_ski" width="64" height="64" viewBox="0 0 64 64">
    <defs>
        <style>
            .cls-2{fill:#333}
        </style>
    </defs>
    <path id="사각형_636" fill="none" d="M0 0H64V64H0z" transform="translate(0 0)"/>
    <path id="사각형_632" d="M0 0H3.831V60.02H0z" class="cls-2" transform="translate(4.815 1.99)"/>
    <path id="사각형_633" d="M0 0H8.024V3.98H0z" class="cls-2" transform="translate(2.719 48.35)"/>
    <path id="패스_521" d="M44.7 687.507h-1.916c-3.9 0-6.73-3.642-6.73-8.659 0-3.3 2.878-6.992 6.73-6.992H44.7zm-3.831-10.8a3.2 3.2 0 0 0-.984 2.14 6.161 6.161 0 0 0 .984 3.6z" class="cls-2" transform="translate(-36.054 -671.856)"/>
    <path id="사각형_634" d="M0 0H3.831V60.02H0z" class="cls-2" transform="translate(51.355 1.99)"/>
    <path id="사각형_635" d="M0 0H8.024V3.98H0z" class="cls-2" transform="translate(49.259 48.35)"/>
    <path id="패스_522" d="M89.325 687.507h-1.916v-15.651h1.916c3.852 0 6.729 3.691 6.729 6.992 0 5.017-2.83 8.659-6.729 8.659zm1.915-10.8v5.739a6.161 6.161 0 0 0 .984-3.6 3.2 3.2 0 0 0-.984-2.138z" class="cls-2" transform="translate(-36.054 -671.856)"/>
    <path id="패스_523" d="M58.833 735.856a4.5 4.5 0 0 1-3.787-2.052l-1.622-2.5a8.123 8.123 0 0 1-1.319-4.437v-55.01h13.457v43.768h-3.83v-39.789h-5.8v51.03a4.045 4.045 0 0 0 .664 2.211l1.623 2.5a.734.734 0 0 0 .612.3.737.737 0 0 0 .615-.3l1.685-2.6a3.652 3.652 0 0 0 .6-2V723.9h3.83v3.077a7.718 7.718 0 0 1-1.254 4.223l-1.684 2.6a4.507 4.507 0 0 1-3.79 2.056z" class="cls-2" transform="translate(-36.054 -671.856)"/>
    <path id="패스_524" d="M74.881 735.856a4.5 4.5 0 0 1-3.789-2.052l-1.621-2.5a8.116 8.116 0 0 1-1.32-4.437v-55.01h13.46v43.768H77.78v-39.789h-5.8v51.03a4.053 4.053 0 0 0 .664 2.211l1.623 2.5a.781.781 0 0 0 1.225 0l1.687-2.6a3.659 3.659 0 0 0 .6-2V723.9h3.831v3.077a7.738 7.738 0 0 1-1.254 4.222l-1.687 2.6a4.5 4.5 0 0 1-3.788 2.057z" class="cls-2" transform="translate(-36.054 -671.856)"/>
</svg>
