<svg xmlns="http://www.w3.org/2000/svg" width="300" height="252" viewBox="0 0 300 252">
    <defs>
        <style>
            .cls-1{fill:#333}
        </style>
    </defs>
    <g id="_03" transform="translate(-688.178 -1004.554)">
        <path id="Path_399" d="M848.269 1154.993v-15.033c16.237 0 29.448-14.335 29.448-31.954 0-16.128-11.122-29.751-25.872-31.69l-5.926-.778-.388-6.191c-.785-12.533-10.437-22.35-21.973-22.35a20.456 20.456 0 0 0-4.544.518l-5.429 1.239-2.554-5.127c-7.383-14.829-21.62-24.04-37.152-24.04-22.716 0-41.615 20.014-42.13 44.616l-.116 5.56-5.154 1.511c-14.028 4.112-23.826 17.978-23.826 33.716 0 19.283 14.466 34.97 32.249 34.97h92.987v15.033H734.9c-25.764 0-46.724-22.431-46.724-50 0-20.56 11.868-38.917 29.423-46.41a62.147 62.147 0 0 1 16.57-36.6 54.394 54.394 0 0 1 39.708-17.426c19.265 0 37 10.4 47.423 27.485q1.129-.075 2.256-.075c17.269 0 31.978 13.013 35.63 30.551 19.16 5.237 33 23.84 33 45.491.006 25.905-19.698 46.984-43.917 46.984z" class="cls-1"/>
        <path id="Path_400" fill="#fcaf17" d="M930.966 1249.037c27.6 0 49.974-24.073 49.974-53.769 0-27.466-19.152-50.079-43.864-53.327-1.4-22.348-18.647-40.022-39.773-40.022a37.316 37.316 0 0 0-8.306.945c-11.345-22.781-33.667-38.284-59.367-38.284-36.668 0-66.43 31.556-67.25 70.8-22.831 6.693-39.639 29.1-39.639 55.785 0 31.964 24.083 57.876 53.791 57.876H903.2"/>
        <path id="Path_401" d="M930.966 1256.554v-15.033c23.566 0 42.737-20.749 42.737-46.253 0-23.338-16.137-43.058-37.536-45.87l-5.925-.778-.389-6.19c-1.159-18.5-15.457-32.994-32.55-32.994a30.411 30.411 0 0 0-6.753.77l-5.428 1.239-2.554-5.128c-10.511-21.108-30.8-34.22-52.939-34.22-32.36 0-59.282 28.46-60.013 63.443l-.116 5.56-5.154 1.51c-20.235 5.932-34.368 25.9-34.368 48.551 0 27.768 20.885 50.36 46.554 50.36H903.2v15.033H776.532c-33.651 0-61.029-29.335-61.029-65.393 0-27.469 16.172-51.925 39.918-61.305a82.022 82.022 0 0 1 21.979-49.866c14.013-14.784 32.561-22.926 52.225-22.926 25.854 0 49.628 14.262 63.218 37.568a43.548 43.548 0 0 1 4.456-.23c22.816 0 42.171 17.637 46.292 41.124 25.777 6.216 44.583 30.905 44.583 59.742.004 33.793-25.661 61.286-57.208 61.286z" class="cls-1"/>
    </g>
</svg>
