<svg xmlns="http://www.w3.org/2000/svg" width="72" height="72" viewBox="0 0 72 72">
    <path fill="none" d="M0 0H72V72H0z"/>
    <path fill="#333" d="M62.959 154C29.916 154 2 124.332 2 89.215A6.9 6.9 0 0 1 9.041 82H20.79c4.224 0 8.745 2.9 8.745 7.215 0 3.224.343 5.028 1.831 9.651a8.019 8.019 0 0 1-1.091 6.687 1.919 1.919 0 0 1-.176.235l-.337.384a2.13 2.13 0 0 1-.214.211l-5.816 4.906a71.268 71.268 0 0 0 20.319 20.921l4.137-4.656c2.22-2.3 5.252-2.871 7.663-1.512l.82.323c.8.314 2.13.841 2.451.946a11.3 11.3 0 0 0 3.837.45A6.9 6.9 0 0 1 70 134.977v11.808A6.9 6.9 0 0 1 62.959 154zM9.041 86A2.934 2.934 0 0 0 6 89.215C6 122.164 32.084 150 62.959 150A2.934 2.934 0 0 0 66 146.785v-11.808a2.934 2.934 0 0 0-3.041-3.216 15.193 15.193 0 0 1-5.081-.649c-.4-.132-1.363-.508-2.677-1.027l-.948-.373a2.06 2.06 0 0 1-.316-.156 2.352 2.352 0 0 0-2.816.716l-5.2 5.857a2 2 0 0 1-2.523.388c-9.146-5.473-19.233-15.878-23.983-24.743a2 2 0 0 1 .473-2.473l7.1-6.03a4.085 4.085 0 0 0 .575-3.179c-1.495-4.636-2.025-6.977-2.025-10.877C25.535 87.4 22.984 86 20.79 86z" transform="translate(0 -82)"/>
</svg>
