<svg id="icon_m_setting_80" xmlns="http://www.w3.org/2000/svg" width="80" height="80">
    <defs>
        <style>
            .cls-2{fill:#333}
        </style>
    </defs>
    <circle id="Ellipse_63" data-name="Ellipse 63" cx="19.5" cy="19.5" r="19.5" transform="translate(20.001 20)" style="fill:#eeae24"/>
    <path id="Path_207" data-name="Path 207" class="cls-2" d="M270.8 80h-.014l-18.575-.1a2.525 2.525 0 0 1-2.485-2.272l-1.006-9.621a30.754 30.754 0 0 1-4.967-2.916l-8.9 3.857a2.5 2.5 0 0 1-3.166-1.066l-9.2-16.163a2.558 2.558 0 0 1 .71-3.329l7.824-5.69a27.88 27.88 0 0 1-.139-2.865 27.4 27.4 0 0 1 .17-2.864l-7.767-5.771a2.557 2.557 0 0 1-.676-3.336l9.372-16.064a2.491 2.491 0 0 1 3.176-1.033l8.855 3.951a30.79 30.79 0 0 1 5-2.865l1.109-9.61A2.521 2.521 0 0 1 252.615 0h.012L271.2.1a2.524 2.524 0 0 1 2.485 2.273l1.008 9.623a30.661 30.661 0 0 1 4.967 2.916l8.9-3.859a2.5 2.5 0 0 1 3.166 1.066l9.2 16.163a2.558 2.558 0 0 1-.71 3.329l-7.825 5.69a26.532 26.532 0 0 1-.03 5.728l9.789 7.271-2.975 4.1-10.982-8.166a2.552 2.552 0 0 1-1-2.424 25.652 25.652 0 0 0 .314-3.669 25.761 25.761 0 0 0-.275-3.676 2.555 2.555 0 0 1 1.021-2.41l7.186-5.226-6.955-12.215-8.18 3.546a2.487 2.487 0 0 1-2.546-.34 25.661 25.661 0 0 0-6.349-3.724 2.541 2.541 0 0 1-1.56-2.09l-.924-8.836-14.08-.074-1.017 8.826a2.531 2.531 0 0 1-1.581 2.071 25.8 25.8 0 0 0-6.389 3.659 2.485 2.485 0 0 1-2.55.314l-8.139-3.633-7.079 12.137 7.129 5.3a2.552 2.552 0 0 1 1 2.424 25.687 25.687 0 0 0-.312 3.671 25.555 25.555 0 0 0 .275 3.676 2.553 2.553 0 0 1-1.022 2.41l-7.185 5.226 6.956 12.215 8.179-3.546a2.485 2.485 0 0 1 2.545.341A25.722 25.722 0 0 0 252 63.911 2.536 2.536 0 0 1 253.559 66l.925 8.836 14.079.073 1.019-8.826a2.53 2.53 0 0 1 1.58-2.071 25.705 25.705 0 0 0 6.388-3.658 2.49 2.49 0 0 1 2.346-.394l13.47 4.644-1.62 4.808-12.228-4.212a30.854 30.854 0 0 1-5.117 2.948l-1.109 9.61A2.521 2.521 0 0 1 270.8 80z" transform="translate(-222.15)"/>
    <path id="Path_208" data-name="Path 208" class="cls-2" d="M253.8 43.495h-.062a11.232 11.232 0 0 1-8.021-3.41 11.522 11.522 0 0 1 8.08-19.581h.059a11.238 11.238 0 0 1 8.022 3.41 11.588 11.588 0 0 1-.084 16.257 11.23 11.23 0 0 1-7.994 3.324zm0-18.927a7.449 7.449 0 0 0-5.224 12.659 7.262 7.262 0 0 0 5.186 2.2 7.169 7.169 0 0 0 5.208-2.149 7.426 7.426 0 0 0 2.179-5.244 7.421 7.421 0 0 0-2.125-5.266 7.26 7.26 0 0 0-5.186-2.2z" transform="translate(-214.288 8)"/>
</svg>
