<svg xmlns="http://www.w3.org/2000/svg" id="icon_m_star" width="56" height="56" viewBox="0 0 56 56">
    <defs>
        <style>
            .cls-1{fill:#fff}
        </style>
    </defs>
    <path id="패스_571" d="M27.382 121.469A27.992 27.992 0 1 1 50.75 108.9l-.252.327-2.918-2.327.1-.127a24.266 24.266 0 1 0-6.053 6.345l2.193 3.02a27.787 27.787 0 0 1-16.439 5.332" class="cls-1" transform="translate(0.618 -65.469)"/>
    <path id="패스_572" d="M19.627 102.137q1.386.363 2.97.627a18.851 18.851 0 0 0 3.1.264 6.483 6.483 0 0 0 3.927-.924 3.008 3.008 0 0 0 1.19-2.504 3.866 3.866 0 0 0-.627-2.277 6.8 6.8 0 0 0-2.013-1.749q-1.617-1.023-3.118-1.93T22.4 91.94a7.564 7.564 0 0 1-2.344-2.409 6.254 6.254 0 0 1-.759-3.168 5.872 5.872 0 0 1 .594-2.69 5.666 5.666 0 0 1 1.667-1.98 7.837 7.837 0 0 1 2.542-1.237 11.433 11.433 0 0 1 3.218-.429q.724 0 1.715.082c.661.055 1.331.133 2.014.231s1.347.21 2 .33 1.2.248 1.666.38l-.494 3.2q-.662-.1-1.535-.2t-1.782-.2q-.907-.1-1.782-.165t-1.568-.066a3.87 3.87 0 0 0-2.452.681 2.39 2.39 0 0 0-.858 2 2.471 2.471 0 0 0 .578 1.765 10.435 10.435 0 0 0 1.44 1.235 24.44 24.44 0 0 0 2.34 1.518q1.419.825 2.739 1.716a17.675 17.675 0 0 1 1.766 1.386 9.048 9.048 0 0 1 1.4 1.584 7.2 7.2 0 0 1 .924 1.865 7.117 7.117 0 0 1 .33 2.227 6.3 6.3 0 0 1-.66 2.887 6 6 0 0 1-1.947 2.211 9.989 9.989 0 0 1-3.184 1.419 16.722 16.722 0 0 1-4.34.512 13.063 13.063 0 0 1-1.628-.116q-.907-.116-1.815-.28t-1.749-.4a14.928 14.928 0 0 1-1.436-.458z" class="cls-1" transform="translate(0.618 -65.324)"/>
</svg>
