<svg xmlns="http://www.w3.org/2000/svg" width="180" height="180" viewBox="0 0 180.001 160">
    <defs>
        <style>
            .cls-2{fill:#333}.cls-3{fill:#fefefe}
        </style>
    </defs>
    <g id="icon_m__banner03" transform="translate(-731.061 -67.033)">
        <path id="Path_394" fill="#fcaf17" d="M740.018 93.065a4.989 4.989 0 0 0-4.986 4.992v80.428c0 8.478 6.7 6.378 14.957 6.378h126.754a4.989 4.989 0 0 0 4.986-4.992V98.057a4.989 4.989 0 0 0-4.986-4.992z"/>
        <path id="Path_395" d="M865.429 192.5H740.018a8.965 8.965 0 0 1-8.948-8.96l-.005-98.359c-.022-8.367-.034-12.566 2.858-15.446 2.788-2.776 6.661-2.746 13.68-2.691 1.137.009 2.376.019 3.729.019h110.741c14.127 0 23.618 8.027 23.618 19.975l.009 5.362h.089l-.049 34.284h-7.925l-.031-26.378a14.207 14.207 0 0 1-1.467-.128H738.995v83.363a1.025 1.025 0 0 0 1.023 1.025h125.411c7.379 0 12.337-5.152 12.337-12.819v-10.615h7.925v10.617c0 12.026-8.522 20.751-20.262 20.751zM738.995 92.245h138.777l-.006-5.2c0-8.882-8.107-12.045-15.693-12.045H751.332c-1.375 0-2.635-.01-3.79-.019-3.494-.029-7.1-.056-8.025.395-.55 1.043-.539 5.486-.527 9.785z" class="cls-2"/>
        <path id="Path_396" d="M837.72 82.049a3.667 3.667 0 1 1-3.668-3.672 3.667 3.667 0 0 1 3.668 3.672" class="cls-2"/>
        <path id="Path_397" d="M852.389 82.049a3.667 3.667 0 1 1-3.667-3.672 3.668 3.668 0 0 1 3.667 3.672" class="cls-2"/>
        <path id="Path_398" d="M867.059 82.049a3.668 3.668 0 1 1-3.667-3.672 3.667 3.667 0 0 1 3.667 3.672" class="cls-2"/>
        <path id="Path_399" d="M830.385 140.8v23.511h-25.672c-5.792 0-12.706-.852-12.706-9.285v-26.39h8.062l11.462 19.548 6.834-7.819" class="cls-3"/>
        <path id="Path_400" d="M833.357 169.48h-28.644c-10.9 0-17.641-7.264-17.641-13.992v-32.351h15.656l9.669 16.135 26.669-33.378 4.642 3.718-32.008 40.06-12.336-20.584h-6.348v26.4c0 3.8 4.8 8.04 11.7 8.04h22.7V140.8h5.944z" class="cls-2"/>
        <path id="Path_401" d="M908.276 183.221l-49.055-43.415.16 64.714 18.17-7.916 11.41 25.061 12.55-5.467-11.4-25.061z" class="cls-3"/>
        <path id="Path_402" d="M884.43 227.033l-10.461-25.061-18.549 8.815-.182-80.338 55.824 53.9-18.416 8.751 10.454 25.061zm-6.353-35.8l10.46 25.06 4.338-2.061-10.455-25.057 14.9-7.079-34.11-32.932.111 49.088z" class="cls-2"/>
    </g>
</svg>
