<svg xmlns="http://www.w3.org/2000/svg" width="63.997" height="64.002" viewBox="0 0 63.997 64.002">
    <defs>
        <style>
            .cls-1{fill:#333}
        </style>
    </defs>
    <g id="icon_f_personal-information_64" transform="translate(0) translate(-21.083 -1570.668)">
        <g id="그룹_202">
            <path id="패스_544"
                  d="M33.236 1624.6l-3.96-.566.92-6.441a9.907 9.907 0 0 1 4.305-6.833l12.7-8.465 2.219 3.328-12.7 8.465a5.9 5.9 0 0 0-2.564 4.07z"
                  class="cls-1"/>
        </g>
        <g id="그룹_203">
            <path id="패스_545"
                  d="M73.406 1624.435l-1.283-6.49a5.851 5.851 0 0 0-2.509-3.743l-13.648-9.1 2.219-3.328 13.648 9.1a9.829 9.829 0 0 1 4.213 6.292l1.284 6.495z"
                  class="cls-1"/>
        </g>
        <g id="그룹_204">
            <path id="패스_546"
                  d="M54.659 1606.252H51.5a9.9 9.9 0 0 1-9.893-9.893v-9.472a9.9 9.9 0 0 1 9.893-9.893h3.157a9.9 9.9 0 0 1 9.893 9.893v9.472a9.9 9.9 0 0 1-9.891 9.893zm-3.159-25.258a5.9 5.9 0 0 0-5.893 5.893v9.472a5.9 5.9 0 0 0 5.893 5.893h3.157a5.9 5.9 0 0 0 5.893-5.893v-9.472a5.9 5.9 0 0 0-5.893-5.893z"
                  class="cls-1"/>
        </g>
        <g id="Oval">
            <path id="패스_547"
                  d="M53.079 1634.67a31.991 31.991 0 1 1 29.984-20.823l-3.747-1.4a27.994 27.994 0 1 0-5.124 8.613l3.018 2.625a32.031 32.031 0 0 1-24.131 10.985z"
                  class="cls-1"/>
        </g>
    </g>
</svg>
