<svg xmlns="http://www.w3.org/2000/svg" id="icon_m_mic" width="72" height="72" viewBox="0 0 72 72">
    <defs>
        <style>
            .cls-2{fill:#333}
        </style>
    </defs>
    <path id="Rectangle_373" fill="none" d="M0 0H72V72H0z"/>
    <g id="icon_m_mic_l_24" transform="translate(-446.999 -81.956)">
        <g id="Path-2">
            <path id="Rectangle_371" d="M0 0H4V7.158H0z" class="cls-2" transform="translate(480.999 144.798)"/>
        </g>
        <g id="Path-2-2">
            <path id="Rectangle_372" d="M0 0H20.571V4H0z" class="cls-2" transform="translate(472.713 149.956)"/>
        </g>
        <g id="Rectangle-13">
            <path id="Path_260" d="M483 136.061c-9.61 0-17.429-8.122-17.429-18.105v-17.9c0-9.983 7.819-18.1 17.429-18.1s17.428 8.122 17.428 18.1v17.9a18.656 18.656 0 0 1-2.313 9.02l-.136.213-.267.364-3.227-2.365.19-.258a14.656 14.656 0 0 0 1.753-6.974v-17.9c0-7.777-6.024-14.1-13.428-14.1s-13.429 6.328-13.429 14.1v17.9c0 7.777 6.025 14.105 13.429 14.105a12.923 12.923 0 0 0 6.788-1.933l2.1 3.4a16.925 16.925 0 0 1-8.888 2.533z" class="cls-2"/>
        </g>
        <g id="Rectangle">
            <path id="Path_261" d="M483.826 146.8h-1.655c-14.115 0-25.171-11.885-25.171-27.054h4c0 12.926 9.3 23.052 21.172 23.052h1.655C495.7 142.8 505 132.672 505 119.746h4c0 15.169-11.059 27.054-25.174 27.054z" class="cls-2"/>
        </g>
    </g>
</svg>
