<svg xmlns="http://www.w3.org/2000/svg" id="icon_visual_car_02" width="76" height="80" viewBox="0 0 76 80">
    <defs>
        <style>
            .cls-1{fill:#333}
        </style>
    </defs>
    <path id="패스_511" d="M91.81 1494.428h-2a3.872 3.872 0 0 1-3.95-4.054v-10.216h9.9v10.216a3.872 3.872 0 0 1-3.95 4.054zm-2.051-4H91.859a.384.384 0 0 0 0-.052v-6.216h-2.103v6.216a.384.384 0 0 0 .003.05z" class="cls-1" transform="translate(-73.85 -1414.428)"/>
    <path id="패스_512" d="M133.84 1494.428h-2a3.872 3.872 0 0 1-3.95-4.054v-10.216h9.9v10.216a3.915 3.915 0 0 1-3.95 4.054zm-2.052-4H133.888a.384.384 0 0 0 0-.052v-6.216h-2.107v6.216c.005.018.006.036.007.05zm-.066-.011z" class="cls-1" transform="translate(-73.85 -1414.428)"/>
    <path id="사각형_620" d="M0 0H58.041V4H0z" class="cls-1" transform="translate(8.903 36.316)"/>
    <path id="사각형_621" d="M0 0H6.004V8H0z" class="cls-1" transform="translate(15.96 48.484)"/>
    <path id="사각형_622" d="M0 0H6.004V8H0z" class="cls-1" transform="translate(53.986 48.484)"/>
    <path id="패스_515" d="M135.789 1452.743h-3.9a6.059 6.059 0 1 0-12.113 0h-3.9a9.958 9.958 0 1 1 19.909 0z" class="cls-1" transform="translate(-73.85 -1414.428)"/>
    <path id="패스_516" d="M143.794 1484.158H89.809c-5.839 0-9.479-4.079-9.94-7.918l-.014-.244v-25.148h3.9v25.011c.323 2.132 2.645 4.3 6.057 4.3H139.9v-57.569a4.656 4.656 0 0 0-4.056-4.162H83.752v20.842l-1.448.4a6.329 6.329 0 0 0-4.556 6.284v4.107h-3.9v-4.107a10.306 10.306 0 0 1 6.005-9.624v-21.9h55.986c4.088 0 7.953 3.967 7.953 8.162z" class="cls-1" transform="translate(-73.85 -1414.428)"/>
    <path id="사각형_623" d="M0 0H48.033V4H0z" class="cls-1" transform="translate(8.8 11.277)"/>
    <path id="패스_517" d="M149.85 1448.564h-3.9v-4.143a4.1 4.1 0 0 0-4.056-4.127v-4a8.05 8.05 0 0 1 7.953 8.127z" class="cls-1" transform="translate(-73.85 -1414.428)"/>
</svg>
