<svg xmlns="http://www.w3.org/2000/svg" id="icon_m_use_l_56" width="56" height="48" viewBox="0 0 56 48">
    <defs>
        <style>
            .cls-1{fill:#000}
        </style>
    </defs>
    <path id="패스_408"
          d="M116.286 908.913h-4v-21.881a4.483 4.483 0 0 0-4.5-4.455h-35.7v13.593h-4v-17.554h39.7a8.468 8.468 0 0 1 8.5 8.416z"
          class="cls-1" transform="translate(-60.286 -878.616)"/>
    <path id="패스_410"
          d="M107.842 926.616H68.786a8.467 8.467 0 0 1-8.5-8.415v-25.862h39.7a8.468 8.468 0 0 1 8.5 8.416v17.572h-4v-17.572a4.483 4.483 0 0 0-4.5-4.456h-35.7v21.9a4.483 4.483 0 0 0 4.5 4.455h39.056z"
          class="cls-1" transform="translate(-60.286 -878.616)"/>
    <path id="패스_411"
          d="M82.231 915.474l-3.339-.077-3.485-11.962 3.363-.96 1.939 6.657 1.719-5.014h3.315l1.7 4.99 1.934-6.637 3.363.96-3.485 11.969-3.34.073-1.835-5.389z"
          class="cls-1" transform="translate(-60.286 -878.616)"/>
    <path id="사각형_534" d="M0 0H5.2V3.465H0z" class="cls-1" transform="translate(13.387 27.617)"/>
    <path id="사각형_535" d="M0 0H5.2V3.465H0z" class="cls-1" transform="translate(28.987 27.617)"/>
</svg>
