<svg xmlns="http://www.w3.org/2000/svg" width="92" height="120" viewBox="0 0 92 120">
    <defs>
        <style>
            .cls-2{fill:#070607}
        </style>
    </defs>
    <g id="icon_m_healthfood01" transform="translate(0) translate(-279.889 -398)">
        <g id="Fill-1">
            <path id="Path_393" fill="#ffbf00" d="M369.014 515.143h-75.556a10.77 10.77 0 0 1-10.694-10.843V418h75.555a10.775 10.775 0 0 1 10.7 10.847v86.3"/>
        </g>
        <g id="Stroke-3">
            <path id="Path_394" d="M371.889 518h-79.9c-5.991 0-12.1-6.187-12.1-12.258v-90.6H359.6a12.034 12.034 0 0 1 8.306 3.793 12.16 12.16 0 0 1 3.788 8.5v68.906h-5.75V427.4a6.68 6.68 0 0 0-2.128-4.448 6.484 6.484 0 0 0-4.216-2.1h-73.961v84.885c0 2.935 3.5 6.544 6.345 6.544h79.9z" class="cls-2"/>
        </g>
        <g id="Stroke-15">
            <path id="Path_395" d="M334.328 482.286h-.1a2.87 2.87 0 0 1-2.667-2.072l-4.253-14.834-4.219 14.828a2.88 2.88 0 0 1-5.469.2c-1.495-4.1-2.866-8.4-4.077-12.8-1.2-4.337-2.338-8.79-3.392-13.234l5.6-1.311c1.038 4.377 2.162 8.763 3.341 13.034q.5 1.8 1.026 3.568l4.39-15.431a2.872 2.872 0 0 1 2.767-2.08 2.936 2.936 0 0 1 2.818 2.074l4.431 15.457c.252-.863.5-1.745.751-2.649l.193-.69c.658-2.35 1.274-4.643 1.828-6.818.44-1.733.852-3.4 1.248-5l.367-1.488 5.584 1.365-.367 1.484c-.4 1.616-.813 3.295-1.257 5.044-.566 2.221-1.193 4.558-1.864 6.95l-.192.686c-.59 2.109-1.146 4.1-1.829 6.091-.3.868-.567 1.675-.823 2.447-.38 1.145-.738 2.218-1.129 3.3a2.874 2.874 0 0 1-2.706 1.879z" class="cls-2"/>
        </g>
        <g id="Stroke-17">
            <path id="Rectangle_475" d="M0 0H8.625V5.714H0z" class="cls-2" transform="translate(307.201 460.857)"/>
        </g>
        <g id="Stroke-19">
            <path id="Rectangle_476" d="M0 0H8.625V5.714H0z" class="cls-2" transform="translate(338.826 460.857)"/>
        </g>
        <g id="Stroke-5">
            <path id="Path_396" d="M348.889 429.429h-5.75v-19.048c0-5.909-3.123-6.667-5.845-6.667h-25.78v25.715h-5.75V398h31.53c7.261 0 11.6 4.628 11.6 12.381z" class="cls-2"/>
        </g>
    </g>
</svg>
