<svg xmlns="http://www.w3.org/2000/svg" width="72" height="72" viewBox="0 0 72 72">
    <defs>
        <style>
            .cls-2{fill:#333}
        </style>
    </defs>
    <g transform="translate(10)">
        <g>
            <path fill="none" d="M0 0H72V72H0z" transform="translate(-10)"/>
            <path d="M34.4 0c-14.322 0-26 11.925-26 26.55a30.651 30.651 0 0 0 2.2 10.238 35.144 35.144 0 0 0 2.975 5.737L31.425 70.2A3.754 3.754 0 0 0 34.4 72a3.754 3.754 0 0 0 2.975-1.8l17.847-27.675a35.144 35.144 0 0 0 2.978-5.737 30.651 30.651 0 0 0 2.2-10.238C60.4 11.925 48.722 0 34.4 0zm21.042 35.663a47.938 47.938 0 0 1-2.754 5.288L34.841 68.513c-.331.563-.441.563-.771 0L16.112 40.838a39.627 39.627 0 0 1-2.754-5.288c0-.112-1.983-4.837-1.983-9 0-12.937 10.356-23.513 23.025-23.513S57.425 13.612 57.425 26.55c0 4.275-1.983 9-1.983 9.113z" class="cls-2" transform="translate(-8.4)"/>
            <path d="M33.5 11.1a14 14 0 1 0 14 14.056 13.977 13.977 0 0 0-14-14.056zm0 24.876a10.821 10.821 0 1 1 10.864-10.82A10.853 10.853 0 0 1 33.5 35.976z" class="cls-2" transform="translate(-7.4 1.283)"/>
        </g>
    </g>
</svg>
