<svg xmlns="http://www.w3.org/2000/svg" width="56" height="36" viewBox="0 0 56 36">
    <defs>
        <style>
            .cls-1{fill:#fff}
        </style>
    </defs>
    <g id="icon_visual_movie_01_w" transform="translate(0) translate(-886.384 -2248.402)">
        <g id="Stroke-3">
            <path id="패스_430" d="M929.908 2284.4h-36.426a7.328 7.328 0 0 1-7.1-7.523v-28.247h36.428a7.256 7.256 0 0 1 7.023 6.429l12.551-6.659v32.916h-4v-26.286l-12.476 6.618v-5.492a3.352 3.352 0 0 0-3.1-3.55h-32.424v24.273a3.351 3.351 0 0 0 3.1 3.549h32.426v-9.043l7.856 4.17-1.884 3.506-1.972-1.047z" class="cls-1"/>
        </g>
        <g id="Stroke-5">
            <path id="패스_431" d="M913.69 2273.945a7.312 7.312 0 1 1 7.359-7.311 7.344 7.344 0 0 1-7.359 7.311zm0-11.642a4.331 4.331 0 1 0 4.359 4.331 4.351 4.351 0 0 0-4.359-4.334z" class="cls-1"/>
        </g>
        <g id="Stroke-9">
            <path id="패스_432" d="M901.972 2273.945a7.312 7.312 0 1 1 7.359-7.311 7.343 7.343 0 0 1-7.359 7.311zm0-11.642a4.331 4.331 0 1 0 4.359 4.331 4.35 4.35 0 0 0-4.359-4.334z" class="cls-1"/>
        </g>
    </g>
</svg>
