<svg xmlns="http://www.w3.org/2000/svg" id="icon_m_mypage" width="120" height="108" viewBox="0 0 120 108">
    <defs>
        <style>
            .cls-1{fill:#fff}
        </style>
    </defs>
    <g id="Group_148" transform="translate(-276.255 -857.533)">
        <path id="Path_378" d="M396.229 965.533H291.274a15.026 15.026 0 0 1-15.019-15v-93h42.183l12.887 12.75h49.91a15.026 15.026 0 0 1 15.02 15v61.037h-6.049v-61.037a9 9 0 0 0-8.971-9h-52.411l-12.886-12.75H282.3v87a9 9 0 0 0 8.97 9h104.959z" class="cls-1"/>
    </g>
    <path id="Path_379" d="M340.479 914.35l6.736 4.492a12.007 12.007 0 0 1 5.221 8.288l1.811 12.689v1.714h5.4v-2.1l-.054-.38-1.811-12.688a17.427 17.427 0 0 0-7.571-12.017l-6.246-4.166" class="cls-1" transform="translate(-276.255 -857.533)"/>
    <path id="Path_380" d="M327.772 910.7l-5.472 3.65a17.425 17.425 0 0 0-7.57 12.016l-1.812 12.689-.054.38v2.1h5.4v-1.714l1.811-12.689a12.01 12.01 0 0 1 5.221-8.288l6.221-4.148" class="cls-1" transform="translate(-276.255 -857.533)"/>
    <path id="Path_381" d="M336.255 893.533a6.427 6.427 0 0 1 6.426 6.429v5.138a6.426 6.426 0 1 1-12.852 0v-5.143a6.427 6.427 0 0 1 6.426-6.429m0-6a12.466 12.466 0 0 0-12.475 12.429v5.143a12.475 12.475 0 0 0 24.95 0v-5.143a12.466 12.466 0 0 0-12.475-12.429z" class="cls-1" transform="translate(-276.255 -857.533)"/>
</svg>
